<svg style="display: none;" xmlns="http://www.w3.org/2000/svg">
    <symbol id="phone" viewBox="0 0 26 26" xmlns="http://www.w3.org/2000/svg">
        <path d="M5.92619 6.45846C6.87016 5.46577 7.20376 5.18735 7.60602 5.05777C7.8844 4.98495 8.17636 4.98091 8.45666 5.046C8.82567 5.15308 8.92328 5.23447 10.1333 6.43811C11.1963 7.49505 11.3025 7.60963 11.4044 7.8163C11.5993 8.17908 11.6297 8.60765 11.4881 8.99425C11.3808 9.28873 11.2285 9.48363 10.5838 10.1294L10.1633 10.5502C10.0529 10.6622 10.0269 10.8324 10.0989 10.9721C11.0332 12.5633 12.3586 13.8901 13.9499 14.8272C14.1331 14.9251 14.3586 14.8935 14.5077 14.749L14.9121 14.3518C15.1621 14.096 15.4267 13.855 15.7048 13.63C16.1416 13.3623 16.6858 13.3384 17.1444 13.5668C17.3686 13.6739 17.4426 13.7403 18.5389 14.8326C19.6695 15.958 19.7017 15.9934 19.8261 16.2515C20.0602 16.6787 20.0578 17.1961 19.8197 17.6211C19.6984 17.861 19.6244 17.9477 18.9883 18.5966C18.6043 18.9886 18.2428 19.3462 18.1849 19.3987C17.6601 19.8324 16.9869 20.0452 16.3077 19.992C15.065 19.8789 13.8622 19.4955 12.7839 18.8686C10.3952 17.6052 8.36162 15.7644 6.86908 13.5143C6.544 13.0434 6.25498 12.5487 6.0045 12.0344C5.33255 10.8847 4.98555 9.57458 5.00046 8.24358C5.05176 7.54726 5.38626 6.90224 5.92619 6.45846Z" stroke-width="2" stroke-linecap="round" stroke-linejoin="round"/>
    </symbol>

    <symbol id="phone-mini"  width="20" height="20" viewBox="0 0 20 20" fill="none" xmlns="http://www.w3.org/2000/svg">
        <circle cx="10" cy="10" r="9.5"/>
        <path stroke="white" d="M12.84 14C12.795 14 12.75 14 12.705 14C11.985 13.9549 11.22 13.6846 10.59 13.3242C9.195 12.6033 7.98 11.5219 7.125 10.1702C6.945 9.89987 6.765 9.62954 6.63 9.31414C6.225 8.6383 6 7.82728 6 7.06133C6.045 6.61076 6.27 6.1602 6.585 5.88986C7.125 5.34919 7.35 5.1239 7.62 5.03379C7.845 4.98874 8.025 4.98874 8.205 5.03379C8.565 5.07885 8.655 5.16896 9.33 5.84481C9.96 6.47559 10.005 6.52065 10.095 6.70088C10.23 6.97121 10.275 7.28661 10.14 7.55695C10.05 7.78223 9.96 7.9174 9.555 8.27785L9.33 8.50313C9.825 9.3592 10.59 10.0801 11.445 10.6208H11.49L11.715 10.3955C11.85 10.2603 12.03 10.0801 12.165 9.94493C12.525 9.71965 12.885 9.71965 13.245 9.89987C13.425 9.98999 13.47 10.035 14.1 10.6658C14.775 11.2966 14.775 11.3417 14.865 11.5219C15.045 11.8373 15.045 12.1977 14.865 12.5131C14.775 12.6934 14.73 12.7384 14.37 13.0989C14.145 13.3242 13.92 13.5494 13.92 13.5494C13.605 13.8648 13.245 14 12.84 14ZM7.98 5.39424C7.935 5.39424 7.845 5.39424 7.755 5.4393C7.62 5.48436 7.485 5.61952 6.945 6.1602C6.63 6.38548 6.495 6.70088 6.45 7.06133C6.45 7.78223 6.63 8.50313 6.99 9.08886C7.125 9.40425 7.305 9.67459 7.485 9.94493C8.34 11.2065 9.465 12.2428 10.815 12.9637C11.4 13.3242 12.075 13.5044 12.75 13.5945C13.065 13.6395 13.425 13.5044 13.65 13.3242C13.695 13.2791 13.875 13.0989 14.1 12.8736C14.46 12.5131 14.505 12.4681 14.55 12.378C14.64 12.1977 14.64 11.9725 14.55 11.7922C14.505 11.6571 14.505 11.6571 13.83 11.0263C13.2 10.3955 13.2 10.3955 13.11 10.3504C12.93 10.2603 12.705 10.2603 12.48 10.3955C12.345 10.4856 12.21 10.6208 12.075 10.7559L11.85 10.9812C11.715 11.1164 11.445 11.1615 11.265 11.0713C10.32 10.5307 9.51 9.71965 8.97 8.77347C8.88 8.54819 8.925 8.3229 9.015 8.18773L9.24 7.96245C9.6 7.602 9.645 7.51189 9.69 7.37672C9.78 7.24155 9.78 7.06133 9.69 6.8811C9.645 6.79099 9.555 6.70088 9.015 6.1602C8.34 5.48436 8.295 5.48436 8.16 5.4393C8.115 5.39424 8.07 5.39424 7.98 5.39424Z" fill="var(--svg-messenger-color)"/>
    </symbol>

    <!-- Social Networks Icons-->
    <symbol id="vk" viewBox="0 0 33 33" fill="none" xmlns="http://www.w3.org/2000/svg">
        <path fill-rule="evenodd" clip-rule="evenodd" stroke="none" d="M24.6101 12.6771C24.7276 12.2871 24.6101 12 24.047 12H22.1876C21.7145 12 21.4963 12.2479 21.378 12.5214C21.378 12.5214 20.4324 14.8043 19.093 16.2871C18.6595 16.7171 18.4626 16.8536 18.226 16.8536C18.1077 16.8536 17.9299 16.7171 17.9299 16.3264V12.6771C17.9299 12.2086 17.7996 12 17.4058 12H14.4818C14.1865 12 14.0087 12.2171 14.0087 12.4236C14.0087 12.8671 14.6787 12.97 14.7474 14.2186V16.9314C14.7474 17.5264 14.6391 17.6343 14.4025 17.6343C13.7721 17.6343 12.2386 15.3407 11.3284 12.7164C11.152 12.2057 10.9735 12 10.4982 12H8.63749C8.10625 12 8 12.2479 8 12.5214C8 13.0086 8.6304 15.4286 10.936 18.6293C12.473 20.815 14.6369 22 16.6082 22C17.7904 22 17.9363 21.7371 17.9363 21.2836V19.6314C17.9363 19.105 18.0482 19 18.4229 19C18.6992 19 19.1716 19.1371 20.2752 20.1907C21.536 21.44 21.7435 22 22.4532 22H24.3126C24.8438 22 25.1101 21.7371 24.9571 21.2171C24.7886 20.7 24.1865 19.9493 23.3882 19.0586C22.9547 18.5514 22.3045 18.005 22.1069 17.7314C21.8313 17.3807 21.91 17.2243 22.1069 16.9121C22.1069 16.9121 24.3735 13.7507 24.6094 12.6771H24.6101Z" fill="var(--svg-messenger-color)"/>
        <circle cx="16.5" cy="16.5" r="15.5" stroke-width="2"/>
    </symbol>

    <symbol id="in" viewBox="0 0 33 33" fill="none" xmlns="http://www.w3.org/2000/svg">
        <circle cx="16.5" cy="16.5" r="15.5" stroke-width="2"/>
        <path stroke="none" d="M16.4983 14.3324C15.3047 14.3324 14.3307 15.3064 14.3307 16.5C14.3307 17.6936 15.3047 18.6676 16.4983 18.6676C17.6918 18.6676 18.6658 17.6936 18.6658 16.5C18.6658 15.3064 17.6918 14.3324 16.4983 14.3324ZM22.9993 16.5C22.9993 15.6024 23.0074 14.7129 22.957 13.8169C22.9066 12.7762 22.6692 11.8526 21.9082 11.0916C21.1456 10.329 20.2236 10.0932 19.1829 10.0428C18.2853 9.99235 17.3958 10.0005 16.4999 10.0005C15.6023 10.0005 14.7128 9.99235 13.8169 10.0428C12.7762 10.0932 11.8526 10.3306 11.0916 11.0916C10.3289 11.8542 10.0932 12.7762 10.0428 13.8169C9.99235 14.7145 10.0005 15.604 10.0005 16.5C10.0005 17.396 9.99235 18.2871 10.0428 19.1831C10.0932 20.2238 10.3306 21.1474 11.0916 21.9084C11.8542 22.671 12.7762 22.9068 13.8169 22.9572C14.7145 23.0076 15.6039 22.9995 16.4999 22.9995C17.3975 22.9995 18.2869 23.0076 19.1829 22.9572C20.2236 22.9068 21.1472 22.6694 21.9082 21.9084C22.6708 21.1458 22.9066 20.2238 22.957 19.1831C23.009 18.2871 22.9993 17.3976 22.9993 16.5ZM16.4983 19.8351C14.6527 19.8351 13.1632 18.3456 13.1632 16.5C13.1632 14.6544 14.6527 13.1649 16.4983 13.1649C18.3438 13.1649 19.8333 14.6544 19.8333 16.5C19.8333 18.3456 18.3438 19.8351 16.4983 19.8351ZM19.9699 13.8072C19.539 13.8072 19.191 13.4592 19.191 13.0283C19.191 12.5974 19.539 12.2494 19.9699 12.2494C20.4008 12.2494 20.7488 12.5974 20.7488 13.0283C20.7489 13.1306 20.7289 13.2319 20.6898 13.3265C20.6507 13.4211 20.5933 13.507 20.521 13.5793C20.4486 13.6517 20.3627 13.7091 20.2681 13.7482C20.1736 13.7873 20.0722 13.8073 19.9699 13.8072Z" fill="var(--svg-messenger-color)"/>
    </symbol>

    <symbol id="tt" viewBox="0 0 33 33" fill="none" xmlns="http://www.w3.org/2000/svg">
        <path stroke="none" d="M16.879 8.01434C17.8205 8 18.7566 8.0085 19.6917 8C19.7483 9.08434 20.1444 10.1889 20.9504 10.9555C21.7549 11.7413 22.8928 12.1009 24 12.2226V15.075C22.9624 15.0416 21.92 14.8291 20.9785 14.3892C20.5684 14.2064 20.1864 13.971 19.8125 13.7304C19.8077 15.8002 19.8212 17.8674 19.799 19.9288C19.7429 20.9191 19.4111 21.9046 18.8262 22.7207C17.8852 24.0791 16.252 24.9648 14.5746 24.9924C13.5456 25.0503 12.5178 24.774 11.641 24.2651C10.188 23.4214 9.16554 21.877 9.01662 20.2194C8.99786 19.8683 8.99498 19.5166 9.00799 19.1653C9.13748 17.8175 9.81462 16.5281 10.8657 15.6509C12.057 14.6293 13.7258 14.1426 15.2884 14.4306C15.3029 15.4799 15.2603 16.5281 15.2603 17.5774C14.5465 17.35 13.7123 17.4137 13.0886 17.8403C12.6323 18.1363 12.2874 18.5719 12.1072 19.0798C11.9583 19.439 12.0009 19.8379 12.0095 20.2194C12.1806 21.3818 13.3158 22.3589 14.5276 22.2531C15.331 22.2446 16.1009 21.7856 16.5196 21.1135C16.6551 20.8782 16.8067 20.6375 16.8148 20.3607C16.8855 19.0936 16.8574 17.8318 16.866 16.5647C16.872 13.7091 16.8574 10.8615 16.8795 8.01488L16.879 8.01434Z" fill="var(--svg-messenger-color)"/>
        <circle cx="16.5" cy="16.5" r="15.5" stroke-width="2"/>
    </symbol>

    <!--User Navigation Icons-->
    <symbol id="basket" viewBox="0 0 33 33" fill="none" xmlns="http://www.w3.org/2000/svg">
        <path d="M9.99338 13.8851C9.92991 13.3365 9.43371 12.9432 8.88508 13.0066C8.33646 13.0701 7.94316 13.5663 8.00663 14.1149L9.99338 13.8851ZM9.85594 21.3989L8.86256 21.5138L8.86258 21.5139L9.85594 21.3989ZM11.7188 23L11.7184 24H11.7188V23ZM21.2812 23L21.2814 22H21.2812V23ZM23.145 21.3989L24.1384 21.5139L24.1384 21.5137L23.145 21.3989ZM24.9934 14.1148C25.0568 13.5662 24.6634 13.07 24.1148 13.0066C23.5662 12.9432 23.07 13.3366 23.0066 13.8852L24.9934 14.1148ZM7 12.5C6.44772 12.5 6 12.9477 6 13.5C6 14.0523 6.44772 14.5 7 14.5V12.5ZM26 14.5C26.5523 14.5 27 14.0523 27 13.5C27 12.9477 26.5523 12.5 26 12.5V14.5ZM9.10557 13.5528C8.85858 14.0468 9.05881 14.6474 9.55279 14.8944C10.0468 15.1414 10.6474 14.9412 10.8944 14.4472L9.10557 13.5528ZM12.8944 10.4472C13.1414 9.95324 12.9412 9.35256 12.4472 9.10557C11.9532 8.85858 11.3526 9.05881 11.1056 9.55279L12.8944 10.4472ZM22.1056 14.4472C22.3526 14.9412 22.9532 15.1414 23.4472 14.8944C23.9412 14.6474 24.1414 14.0468 23.8944 13.5528L22.1056 14.4472ZM21.8944 9.55279C21.6474 9.05881 21.0468 8.85858 20.5528 9.10557C20.0588 9.35256 19.8586 9.95324 20.1056 10.4472L21.8944 9.55279ZM12.5 19C12.5 19.5523 12.9477 20 13.5 20C14.0523 20 14.5 19.5523 14.5 19H12.5ZM14.5 17C14.5 16.4477 14.0523 16 13.5 16C12.9477 16 12.5 16.4477 12.5 17H14.5ZM15.5 19C15.5 19.5523 15.9477 20 16.5 20C17.0523 20 17.5 19.5523 17.5 19H15.5ZM17.5 17C17.5 16.4477 17.0523 16 16.5 16C15.9477 16 15.5 16.4477 15.5 17H17.5ZM18.5 19C18.5 19.5523 18.9477 20 19.5 20C20.0523 20 20.5 19.5523 20.5 19H18.5ZM20.5 17C20.5 16.4477 20.0523 16 19.5 16C18.9477 16 18.5 16.4477 18.5 17H20.5ZM8.00663 14.1149L8.86256 21.5138L10.8493 21.284L9.99338 13.8851L8.00663 14.1149ZM8.86258 21.5139C9.03016 22.961 10.288 23.9995 11.7184 24L11.7191 22C11.2393 21.9998 10.8928 21.6594 10.8493 21.2839L8.86258 21.5139ZM11.7188 24H21.2812V22H11.7188V24ZM21.2811 24C22.712 24.0002 23.9707 22.9615 24.1384 21.5139L22.1516 21.2839C22.1081 21.6595 21.7614 22.0001 21.2814 22L21.2811 24ZM24.1384 21.5137L24.9934 14.1148L23.0066 13.8852L22.1516 21.2841L24.1384 21.5137ZM7 14.5H26V12.5H7V14.5ZM10.8944 14.4472L12.8944 10.4472L11.1056 9.55279L9.10557 13.5528L10.8944 14.4472ZM23.8944 13.5528L21.8944 9.55279L20.1056 10.4472L22.1056 14.4472L23.8944 13.5528ZM14.5 19V17H12.5V19H14.5ZM17.5 19V17H15.5V19H17.5ZM20.5 19V17H18.5V19H20.5Z" stroke="none" fill="white"/>
        <circle cx="16.5" cy="16.5" r="15.5" stroke-width="2"/>
    </symbol>

    <symbol id="menu-on" viewBox="0 0 34 34" xmlns="http://www.w3.org/2000/svg" fill="none">
        <path d="M25.7237,17C25.7237,17.4921 25.3211,17.8947 24.8289,17.8947L14.8079,17.8947C14.3158,17.8947 13.9132,17.4921 13.9132,17C13.9132,16.5079 14.3158,16.1053 14.8079,16.1053L24.8289,16.1053C25.3211,16.1053 25.7237,16.5079 25.7237,17zM25.7237,22.3684C25.7237,22.8605 25.3211,23.2632 24.8289,23.2632L14.8079,23.2632C14.3158,23.2632 13.9132,22.8605 13.9132,22.3684C13.9132,21.8763 14.3158,21.4737 14.8079,21.4737L24.8289,21.4737C25.3211,21.4737 25.7237,21.8763 25.7237,22.3684zM11.7658,17C11.7658,17.4921 11.3632,17.8947 10.8711,17.8947L9.17105,17.8947C8.67895,17.8947 8.27632,17.4921 8.27632,17C8.27632,16.5079 8.67895,16.1053 9.17105,16.1053L10.8711,16.1053C11.3632,16.1053 11.7658,16.5079 11.7658,17zM11.7658,22.3684C11.7658,22.8605 11.3632,23.2632 10.8711,23.2632L9.17105,23.2632C8.67895,23.2632 8.27632,22.8605 8.27632,22.3684C8.27632,21.8763 8.67895,21.4737 9.17105,21.4737L10.8711,21.4737C11.3632,21.4737 11.7658,21.8763 11.7658,22.3684zM25.7237,11.6316C25.7237,12.1237 25.3211,12.5263 24.8289,12.5263L14.8079,12.5263C14.3158,12.5263 13.9132,12.1237 13.9132,11.6316C13.9132,11.1395 14.3158,10.7368 14.8079,10.7368L24.8289,10.7368C25.3211,10.7368 25.7237,11.1395 25.7237,11.6316zM11.7658,11.6316C11.7658,12.1237 11.3632,12.5263 10.8711,12.5263L9.17105,12.5263C8.67895,12.5263 8.27632,12.1237 8.27632,11.6316C8.27632,11.1395 8.67895,10.7368 9.17105,10.7368L10.8711,10.7368C11.3632,10.7368 11.7658,11.1395 11.7658,11.6316z" fill="white" stroke="none"/>
        <circle cx="16.5" cy="16.5" r="15.5" stroke-width="2"/>
    </symbol>

    <symbol id="menu-off" viewBox="0 0 33 33" fill="none" xmlns="http://www.w3.org/2000/svg">
        <path xmlns="http://www.w3.org/2000/svg" d="M16.5 0C7.30714 0 0 7.30714 0 16.5C0 25.6929 7.30714 33 16.5 33C25.6929 33 33 25.6929 33 16.5C33 7.30714 25.6929 0 16.5 0ZM16.5 30.6429C8.72143 30.6429 2.35714 24.2786 2.35714 16.5C2.35714 8.72143 8.72143 2.35714 16.5 2.35714C24.2786 2.35714 30.6429 8.72143 30.6429 16.5C30.6429 24.2786 24.2786 30.6429 16.5 30.6429Z" fill="#02E602" stroke="none"/>
        <path xmlns="http://www.w3.org/2000/svg" d="M23.0571 25L16.5 18.4429L9.94286 25L8 23.0571L14.5571 16.5L8 9.94286L9.94286 8L16.5 14.5571L23.0571 8L25 9.94286L18.4429 16.5L25 23.0571L23.0571 25Z" fill="#02E602" stroke="none"/>
    </symbol>

    <!-- Site Nav Icons -->
    <symbol id="home" viewBox="0 0 40 40" fill="none" xmlns="http://www.w3.org/2000/svg">
        <circle cx="20" cy="20" r="19" fill-opacity="0.95" stroke-width="2"/>
        <path d="M31.5023 18.8234L21.2734 8.90062L20.5877 8.23516C20.4315 8.08454 20.2203 8 20 8C19.7798 8 19.5686 8.08454 19.4124 8.23516L8.49779 18.8234C8.33772 18.9781 8.2112 19.1625 8.12573 19.3655C8.04025 19.5685 7.99754 19.786 8.00011 20.0053C8.0107 20.9097 8.78634 21.6317 9.71817 21.6317H10.8432V30H29.1569V21.6317H30.3058C30.7584 21.6317 31.1846 21.4595 31.505 21.1486C31.6627 20.9961 31.7876 20.8146 31.8726 20.6148C31.9576 20.415 32.0009 20.2009 32 19.9847C32 19.5479 31.8226 19.1343 31.5023 18.8234ZM21.4825 28.1501H18.5176V22.9086H21.4825V28.1501ZM27.2508 19.7818V28.1501H23.1767V22.292C23.1767 21.7242 22.7029 21.2643 22.1178 21.2643H17.8823C17.2972 21.2643 16.8234 21.7242 16.8234 22.292V28.1501H12.7493V19.7818H10.2079L20.0027 10.2829L20.6142 10.8764L29.7948 19.7818H27.2508Z" stroke="none" fill="#02E602"/>
    </symbol>

    <symbol id="insects" viewBox="0 0 40 40" fill="none" xmlns="http://www.w3.org/2000/svg">
        <circle cx="20" cy="20" r="19" fill-opacity="0.95" stroke-width="2"/>
        <path d="M11.9526 30.9865C11.8074 30.8832 11.6666 30.7754 11.649 30.5778C11.6314 30.3353 11.7722 30.1916 11.9702 30.0928C12.3706 29.8906 12.7622 29.6751 13.167 29.4864C13.343 29.4056 13.409 29.3113 13.4046 29.1047C13.3914 28.0402 13.4002 26.9803 13.3958 25.9158C13.3958 25.6913 13.4662 25.5161 13.6246 25.3589C14.0998 24.8828 14.5706 24.3978 15.0414 23.9172C15.1074 23.8498 15.1646 23.787 15.1646 23.6702C15.1602 23.0998 15.191 22.5339 15.2878 21.9725C15.3186 21.8063 15.3054 21.7165 15.0942 21.7299C14.7378 21.7524 14.3374 21.6491 14.0294 21.7748C13.7302 21.9006 13.519 22.2509 13.2682 22.5069C12.7182 23.0683 12.1638 23.6253 11.6182 24.1912C11.4598 24.3574 11.2838 24.4382 11.055 24.4337C10.549 24.4247 10.043 24.4337 9.53705 24.4292C9.20706 24.4292 8.99146 24.2451 9.00026 23.9711C9.00906 23.7061 9.21146 23.5354 9.53265 23.531C9.95945 23.531 10.3818 23.5265 10.8086 23.5354C10.9494 23.5399 11.0506 23.4995 11.1518 23.3917C11.8954 22.6237 12.6478 21.8692 13.387 21.1012C13.5718 20.9125 13.7654 20.8227 14.0294 20.8317C14.4694 20.8451 14.9094 20.8362 15.3494 20.8362C15.4154 20.8362 15.499 20.8676 15.5254 20.7598C15.6882 20.1715 15.917 19.61 16.1986 19.0576C16.159 19.0486 16.137 19.0396 16.1194 19.0441C15.5826 19.1429 15.2086 18.8914 14.861 18.4962C14.4782 18.0516 14.0514 17.6473 13.6378 17.2386C13.4618 17.0635 13.387 16.8703 13.3914 16.6188C13.4002 15.9002 13.3914 15.1816 13.3958 14.463C13.3958 14.3417 13.3694 14.2519 13.277 14.1711C13.0746 13.9779 12.8766 13.7758 12.6874 13.5692C12.4718 13.3357 12.4586 13.0842 12.6478 12.891C12.837 12.6979 13.0834 12.7114 13.3078 12.936C13.5718 13.1964 13.827 13.4659 14.0866 13.7264C14.2186 13.8612 14.2758 14.0184 14.2714 14.2115C14.267 14.9525 14.2714 15.6936 14.267 16.4347C14.267 16.5559 14.2978 16.6413 14.3814 16.7311C14.8126 17.1623 15.235 17.5934 15.6574 18.0336C15.7366 18.1144 15.8114 18.1504 15.9258 18.1504C16.8057 18.1549 16.8057 18.1549 17.3821 17.4812C17.4393 17.4138 17.4437 17.3779 17.3777 17.3195C16.6253 16.6413 16.8057 15.6622 17.7429 15.1053C17.9893 14.957 18.2533 14.8403 18.5305 14.7684C18.6229 14.7459 18.6757 14.71 18.6757 14.5932C18.6625 13.8387 18.7021 13.0842 18.5481 12.3341C18.2797 11.0586 17.6549 10.0121 16.6781 9.17223C16.5681 9.07791 16.4449 8.99258 16.3306 8.89826C15.9302 8.58387 15.9346 8.29194 16.3437 8C16.4185 8 16.4889 8 16.5637 8C16.6385 8.04042 16.7177 8.07635 16.7837 8.12576C17.8925 8.90724 18.6845 9.94474 19.1597 11.2337C19.5029 12.1679 19.5777 13.1336 19.5557 14.1217C19.5469 14.5618 19.5557 14.5618 19.9737 14.5573C20.0397 14.5573 20.1057 14.5483 20.1717 14.5618C20.3961 14.6112 20.4445 14.5169 20.4401 14.2968C20.4181 13.4839 20.4269 12.6665 20.6337 11.8715C21.0649 10.2232 21.9845 8.93419 23.3836 8C23.4584 8 23.5288 8 23.6036 8C24.048 8.22007 24.0876 8.57938 23.674 8.88479C23.0492 9.34739 22.5257 9.89982 22.1209 10.5735C21.5797 11.4763 21.3333 12.4644 21.3157 13.5153C21.3113 13.8612 21.3201 14.2025 21.3113 14.5483C21.3069 14.6876 21.3553 14.7415 21.4785 14.7774C21.9581 14.9166 22.3937 15.1322 22.7325 15.5185C23.1988 16.0484 23.1856 16.7491 22.6797 17.2431C22.5433 17.3734 22.5345 17.4497 22.6841 17.562C22.7677 17.6249 22.8513 17.6967 22.8997 17.7821C23.0844 18.1054 23.3616 18.1593 23.7092 18.1638C24.0788 18.1683 24.3384 18.065 24.5804 17.7821C24.884 17.4273 25.2228 17.1039 25.5572 16.7805C25.6804 16.6592 25.72 16.538 25.72 16.3718C25.7112 15.6622 25.72 14.9481 25.7156 14.2384C25.7112 14.0184 25.7816 13.8477 25.9356 13.6995C26.1996 13.439 26.446 13.165 26.7188 12.909C26.9872 12.6575 27.3524 12.7518 27.458 13.0887C27.5196 13.2863 27.436 13.439 27.3084 13.5737C27.1148 13.7803 26.9212 13.9824 26.7188 14.1756C26.6308 14.2609 26.6044 14.3507 26.6044 14.472C26.6088 15.1996 26.6 15.9227 26.6088 16.6503C26.6132 16.8838 26.5384 17.0635 26.3756 17.2296C25.8784 17.7282 25.3812 18.2267 24.9016 18.7387C24.686 18.9678 24.4572 19.089 24.1448 19.0531C24.0392 19.0396 23.9292 19.0531 23.7928 19.0531C24.0832 19.619 24.312 20.1849 24.4748 20.7733C24.5056 20.8811 24.5848 20.8496 24.6508 20.8496C25.104 20.8496 25.5616 20.8586 26.0148 20.8496C26.2436 20.8451 26.4196 20.9215 26.5824 21.0877C27.3216 21.8467 28.0652 22.6012 28.8 23.3648C28.9364 23.504 29.0684 23.5624 29.2576 23.5534C29.6623 23.5399 30.0627 23.5489 30.4675 23.5489C30.7887 23.5489 30.9955 23.7241 30.9999 23.9891C31.0043 24.263 30.7931 24.4472 30.4631 24.4472C29.9483 24.4472 29.438 24.4427 28.9232 24.4517C28.7076 24.4562 28.5448 24.3753 28.3952 24.2226C27.634 23.4411 26.8684 22.6686 26.1116 21.8871C26.0148 21.7883 25.9224 21.7479 25.786 21.7524C25.4692 21.7614 25.1568 21.7614 24.84 21.7524C24.7212 21.7479 24.6904 21.7793 24.708 21.9006C24.8004 22.5069 24.8444 23.1178 24.84 23.7331C24.84 23.8319 24.906 23.8768 24.9632 23.9307C25.4296 24.4068 25.8916 24.8873 26.3624 25.3589C26.5296 25.5251 26.6088 25.7137 26.6044 25.9563C26.5956 27.0207 26.6044 28.0806 26.5956 29.1451C26.5956 29.3292 26.6528 29.4191 26.8156 29.4909C27.2204 29.684 27.612 29.8996 28.0124 30.0972C28.2104 30.1961 28.3644 30.3263 28.3556 30.5688C28.3468 30.7934 28.206 30.9281 28.008 31C27.9332 31 27.8628 31 27.788 31C27.2292 30.7126 26.6748 30.4116 26.1116 30.1377C25.8344 30.0029 25.7112 29.8143 25.7156 29.4909C25.7288 28.3861 25.72 27.2767 25.72 26.1718C25.72 26.1 25.7508 26.0146 25.6936 25.9563C25.39 25.6419 25.0776 25.332 24.752 24.9951C24.7344 25.0849 24.7212 25.1343 24.7124 25.1838C24.5276 26.3964 24.1668 27.5507 23.5288 28.5971C22.9304 29.5852 22.1781 30.3982 21.0781 30.8069C20.8581 30.8877 20.6249 30.9371 20.3961 31C20.1013 31 19.8109 31 19.5161 31C19.4897 30.9236 19.4193 30.9416 19.3665 30.9281C18.4293 30.7305 17.6989 30.1916 17.0873 29.464C16.2162 28.431 15.719 27.2138 15.4198 25.9024C15.3538 25.6104 15.3054 25.314 15.2394 24.9861C14.9402 25.296 14.6674 25.579 14.3902 25.853C14.3022 25.9383 14.2714 26.0281 14.2758 26.1449C14.2802 27.2677 14.2714 28.3906 14.2802 29.5134C14.2846 29.8053 14.1746 29.985 13.9194 30.1107C13.343 30.3937 12.7798 30.6991 12.2078 30.9955C12.1286 30.9865 12.0406 30.9865 11.9526 30.9865ZM20.4445 30.0478C20.5941 30.0029 20.7217 29.9715 20.8449 29.9221C21.7161 29.5807 22.3233 28.925 22.7721 28.1301C24.048 25.8709 24.2592 23.4681 23.6168 20.9619C23.5904 20.8631 23.5508 20.8317 23.454 20.8317C22.4949 20.8362 21.5313 20.8362 20.5721 20.8317C20.4797 20.8317 20.4401 20.8541 20.4489 20.9574C20.4577 21.0832 20.4577 21.2134 20.4401 21.3392C20.4093 21.5727 20.2157 21.7389 20.0001 21.7299C19.7933 21.7254 19.6129 21.5638 19.5777 21.3437C19.5601 21.2359 19.5601 21.1191 19.5689 21.0068C19.5821 20.8721 19.5469 20.8317 19.4061 20.8317C18.4689 20.8407 17.5273 20.8407 16.5901 20.8317C16.4581 20.8317 16.4229 20.8811 16.3877 21.0023C15.9434 22.6327 15.9346 24.263 16.3394 25.9024C16.6341 27.106 17.1225 28.2154 17.9893 29.1181C18.4249 29.5718 18.9309 29.9131 19.5689 30.0389C19.5689 29.9401 19.5689 29.8547 19.5689 29.7739C19.5689 28.1929 19.5689 26.6165 19.5689 25.0355C19.5689 24.9457 19.5689 24.8559 19.5909 24.7706C19.6393 24.5684 19.8109 24.4337 20.0045 24.4337C20.1981 24.4337 20.3741 24.5684 20.4225 24.7661C20.4445 24.8604 20.4445 24.9592 20.4445 25.0535C20.4445 26.7063 20.4445 28.3636 20.4445 30.0478ZM23.2384 19.9334C22.8865 19.1429 22.4377 18.4648 21.7953 17.9303C21.7117 17.8629 21.6457 17.8764 21.5533 17.9033C20.5237 18.2177 19.4897 18.2222 18.4601 17.9033C18.3457 17.8674 18.2753 17.8809 18.1829 17.9572C17.8705 18.2222 17.5977 18.5231 17.3645 18.86C17.1357 19.1923 16.9245 19.5382 16.7793 19.9334C18.9353 19.9334 21.0693 19.9334 23.2384 19.9334ZM20.0001 15.4601C19.8901 15.4601 19.7801 15.4511 19.6701 15.4601C19.0893 15.5185 18.5217 15.6128 18.0421 15.9856C17.7341 16.2236 17.7385 16.4482 18.0333 16.6907C18.3237 16.9332 18.6713 17.0545 19.0321 17.1308C19.9737 17.324 20.8977 17.2925 21.7689 16.8344C21.9713 16.7311 22.1957 16.5964 22.1913 16.3359C22.1869 16.0799 21.9581 15.9541 21.7601 15.8418C21.2101 15.5409 20.6117 15.4601 20.0001 15.4601Z" stroke="none" fill="#02E602"/>
        <path d="M20.9999 23.4923C21.0049 23.7535 20.7788 23.9896 20.5175 23.9997C20.2462 24.0097 20 23.7686 20 23.4973C20 23.2361 20.2362 23 20.4974 23C20.7537 23 20.9899 23.2311 20.9999 23.4923Z" fill="#02E602" stroke="none"/>
    </symbol>

    <symbol id="atomize" viewBox="0 0 40 40" fill="none" xmlns="http://www.w3.org/2000/svg">
        <circle cx="20" cy="20" r="19" fill-opacity="0.95" stroke-width="2"/>
        <path d="M34.9854 16.8824C34.8032 17.0998 34.672 17.404 34.3586 17.4402C34.0307 17.4765 34.0379 17.6648 34.0525 17.8966C34.0598 18.056 34.0598 18.2226 34.0525 18.382C34.0452 18.9543 33.6735 19.331 33.0977 19.3527C32.8718 19.36 32.6386 19.3672 32.4126 19.3527C32.245 19.3455 32.1794 19.3817 32.1794 19.5701C32.1867 20.664 32.1867 21.7579 32.1794 22.859C32.1794 23.0184 32.2159 23.0981 32.3908 23.0691C32.4782 23.0546 32.573 23.0619 32.6604 23.0691C32.9228 23.0908 33.1123 23.2792 33.1123 23.5255C33.1123 23.7501 32.9374 23.9819 32.6969 23.9819C32.0409 23.9964 31.385 23.9964 30.729 23.9819C30.4739 23.9746 30.3063 23.7501 30.3209 23.4965C30.3355 23.2575 30.5031 23.0908 30.7655 23.0691C31.2538 23.0329 31.2538 23.0329 31.2538 22.5403C31.2538 21.5695 31.2465 20.606 31.2611 19.6353C31.2611 19.4035 31.1882 19.3383 30.9695 19.36C30.7582 19.3817 30.5541 19.3672 30.3427 19.36C29.7597 19.3383 29.4026 18.9688 29.388 18.3892C29.3734 17.8169 29.3734 17.8169 28.7976 17.9546C27.1286 18.3458 25.5835 19.0123 24.1039 19.8671C23.7687 20.0627 23.6958 20.3742 23.5209 20.6567C23.8926 20.8958 24.2205 21.1711 24.4902 21.5188C24.738 21.8303 24.7963 22.178 24.6287 22.533C24.4538 22.8952 24.1477 23.0619 23.7468 23.0619C21.9101 23.0619 20.0662 23.0619 18.2295 23.0619C17.8287 23.0619 17.5225 22.888 17.3549 22.5258C17.1946 22.178 17.2456 21.8376 17.4861 21.5333C17.7266 21.2218 18.0109 20.9537 18.3388 20.7437C18.4482 20.6785 18.4336 20.635 18.4044 20.5191C18.2951 20.1206 17.989 19.9395 17.661 19.7512C16.1596 18.8746 14.5635 18.2516 12.8653 17.8749C12.6466 17.8242 12.5665 17.8749 12.5956 18.0995C12.6102 18.1936 12.6029 18.2951 12.5956 18.3965C12.581 18.9688 12.2166 19.3383 11.6336 19.36C11.3858 19.3672 11.138 19.3672 10.8974 19.36C10.7663 19.3527 10.7298 19.4035 10.7298 19.5339C10.7371 20.6567 10.7371 21.7796 10.7298 22.9025C10.7298 23.0256 10.7663 23.0836 10.8974 23.0763C11.0068 23.0691 11.1161 23.0691 11.2254 23.0763C11.4805 23.0981 11.6481 23.2647 11.6627 23.511C11.6773 23.7646 11.5097 23.9819 11.2473 23.9891C10.5986 24.0036 9.95725 24.0036 9.30858 23.9891C9.05349 23.9819 8.86399 23.7573 8.87128 23.5183C8.87857 23.2719 9.06807 23.0908 9.33045 23.0691C9.80419 23.0329 9.80419 23.0329 9.80419 22.5548C9.80419 21.5695 9.7969 20.5843 9.81148 19.5918C9.81148 19.4035 9.76775 19.3383 9.57096 19.3527C9.34502 19.3672 9.11909 19.3672 8.88586 19.3527C8.31008 19.3238 7.94566 18.9471 7.93837 18.3748C7.93837 18.2733 7.93109 18.1719 7.93837 18.0777C7.96753 17.7517 7.97482 17.4837 7.52294 17.3823C7.18039 17.3026 7.02004 16.9621 7.00547 16.5926C6.99818 16.3029 6.99818 16.0131 7.00547 15.7233C7.00547 15.0931 7.39175 14.7164 8.03312 14.7091C8.5506 14.7091 9.07536 14.6946 9.59283 14.7164C9.83334 14.7236 9.94267 14.6729 9.99369 14.4193C10.0811 13.9702 10.2051 13.521 10.329 13.0791C10.38 12.898 10.3362 12.8546 10.1467 12.8546C9.27214 12.8618 8.39754 12.8618 7.52294 12.8546C7.21683 12.8546 7.02004 12.6734 7.01276 12.4054C7.00547 12.1301 7.20954 11.9418 7.53023 11.9273C7.59582 11.9273 7.65413 11.9273 7.71972 11.9273C8.6089 11.9273 9.50537 11.9273 10.3945 11.9273C10.5622 11.9273 10.6715 11.9055 10.7663 11.7389C10.9485 11.4274 11.24 11.2173 11.5825 11.0942C11.6409 11.0724 11.7356 11.0797 11.7648 11C11.9834 11 12.2021 11 12.4207 11C12.8653 11.1449 13.2807 11.326 13.5212 11.7534C13.6087 11.9055 13.718 11.9273 13.8711 11.9273C14.7748 11.92 15.6713 11.9273 16.5751 11.9273C17.0415 11.9273 17.2675 12.0794 17.2747 12.3909C17.2747 12.7024 17.0488 12.8546 16.5824 12.8546C15.7005 12.8546 14.8186 12.8546 13.9075 12.8546C14.0533 13.4558 14.1991 14.0354 14.3448 14.6077C14.374 14.7381 14.4833 14.7019 14.5635 14.7019C15.7442 14.7019 16.9322 14.7019 18.1129 14.7019C18.2368 14.7019 18.3024 14.6656 18.3607 14.5497C18.6231 14.0354 19.0677 13.7818 19.6362 13.7746C20.5399 13.7673 21.4364 13.7673 22.3401 13.7746C22.9232 13.7818 23.3751 14.0354 23.6448 14.557C23.6958 14.6584 23.7468 14.7019 23.8707 14.7019C25.0733 14.6946 26.2759 14.7019 27.4784 14.7019C27.5586 14.7019 27.6388 14.7091 27.6679 14.6004C27.8064 14.0209 27.9522 13.4486 28.0979 12.8546C27.2233 12.8546 26.3779 12.8546 25.5324 12.8546C25.4304 12.8546 25.3357 12.8546 25.2336 12.8546C24.9421 12.8473 24.7307 12.6517 24.738 12.3909C24.738 12.1301 24.9494 11.9345 25.2482 11.9345C26.1519 11.9273 27.0484 11.92 27.9522 11.9418C28.2364 11.949 28.4405 11.8983 28.5935 11.6303C28.7102 11.4129 28.9361 11.2898 29.1547 11.1739C29.2641 11.1159 29.4026 11.1232 29.4827 11.0145C29.7014 11.0145 29.92 11.0145 30.1387 11.0145C30.5978 11.1449 31.0133 11.3477 31.2611 11.7751C31.3485 11.92 31.4433 11.9418 31.5891 11.9418C32.5147 11.9345 33.4476 11.949 34.3732 11.9345C34.6574 11.9273 34.8615 12.0142 35 12.2605C35 12.3547 35 12.4416 35 12.5358C34.8688 12.7894 34.6647 12.8763 34.3805 12.869C33.5569 12.8546 32.726 12.8763 31.9025 12.8618C31.6619 12.8546 31.6401 12.9198 31.6984 13.1371C31.8296 13.5935 31.9389 14.0644 32.0482 14.528C32.0847 14.6801 32.143 14.7308 32.3033 14.7308C32.7843 14.7164 33.2654 14.7453 33.7464 14.7236C34.3295 14.6874 34.7668 14.8685 35 15.4263C34.9854 15.9044 34.9854 16.397 34.9854 16.8824ZM19.126 17.4837C19.126 18.2371 19.126 18.9833 19.126 19.7367C19.126 20.1134 19.2936 20.2873 19.6726 20.2873C20.5472 20.2945 21.4218 20.2945 22.2964 20.2873C22.6827 20.2873 22.843 20.1134 22.843 19.7367C22.843 18.2516 22.843 16.7665 22.843 15.2814C22.843 14.8902 22.6754 14.7164 22.2818 14.7164C21.4145 14.7164 20.5545 14.7164 19.6872 14.7164C19.2936 14.7164 19.126 14.883 19.126 15.2814C19.126 16.0203 19.126 16.752 19.126 17.4837ZM23.7832 18.9688C23.8998 18.9108 23.98 18.8746 24.0529 18.8312C24.9712 18.3096 25.926 17.8749 26.9245 17.5272C29.0163 16.7882 31.1809 16.5274 33.3893 16.5709C33.6006 16.5782 33.8849 16.6723 34.0161 16.5274C34.1181 16.4043 34.0379 16.129 34.0598 15.9262C34.0817 15.7016 34.0161 15.6364 33.7828 15.6436C32.1138 15.6581 30.4521 15.6509 28.783 15.6509C27.2015 15.6509 25.6126 15.6509 24.031 15.6509C23.878 15.6509 23.7832 15.6581 23.7832 15.861C23.7905 16.8752 23.7832 17.8966 23.7832 18.9688ZM18.2004 18.9833C18.2004 17.9329 18.1931 16.9331 18.2077 15.9407C18.2077 15.7016 18.1566 15.6436 17.9088 15.6436C14.8186 15.6509 11.7356 15.6509 8.64534 15.6509C7.88736 15.6509 7.89464 15.6509 7.9238 16.4115C7.93109 16.5419 7.96753 16.5782 8.09143 16.5782C8.49958 16.5709 8.90772 16.5782 9.32316 16.5782C11.7575 16.5782 14.0897 17.049 16.32 18.027C16.9541 18.2951 17.559 18.6138 18.2004 18.9833ZM28.5863 14.7164C29.4026 14.7164 30.1824 14.7164 30.9695 14.7164C31.108 14.7164 31.1153 14.6656 31.0862 14.5497C30.9112 13.8688 30.7436 13.1806 30.5614 12.4996C30.4666 12.1446 30.1897 11.9345 29.8544 11.9273C29.5192 11.9273 29.2349 12.1446 29.1402 12.4923C28.958 13.2313 28.7758 13.9557 28.5863 14.7164ZM13.3973 14.7164C13.2078 13.9629 13.0329 13.2313 12.8434 12.5068C12.7487 12.1519 12.4717 11.9418 12.1365 11.9418C11.8012 11.9418 11.5242 12.1519 11.4295 12.5068C11.2473 13.1878 11.0869 13.876 10.9047 14.557C10.8683 14.7019 10.912 14.7236 11.0432 14.7236C11.8085 14.7164 12.581 14.7164 13.3973 14.7164ZM18.1931 22.1273C20.0808 22.1273 21.9174 22.1273 23.7978 22.1273C23.3824 21.584 22.8941 21.2363 22.2308 21.2218C21.4291 21.2073 20.6274 21.2145 19.833 21.2218C19.1333 21.2218 18.6304 21.5623 18.1931 22.1273ZM10.2488 18.4327C10.533 18.4327 10.81 18.4327 11.0942 18.4327C11.6846 18.4327 11.6773 18.4327 11.6627 17.8459C11.6627 17.6938 11.6117 17.6576 11.4586 17.6358C10.8318 17.5561 10.2123 17.5272 9.58554 17.5054C8.84213 17.4837 8.84942 17.4837 8.85671 18.2299C8.85671 18.4037 8.91501 18.44 9.07536 18.44C9.46164 18.4255 9.85521 18.4327 10.2488 18.4327ZM31.7202 18.4327C31.9535 18.4327 32.194 18.44 32.4272 18.4327C32.6532 18.4255 32.9593 18.5341 33.0759 18.382C33.1852 18.2444 33.0977 17.9473 33.1196 17.7228C33.1342 17.5489 33.0832 17.4909 32.8937 17.4909C32.2231 17.5054 31.5453 17.5199 30.8748 17.5851C30.2917 17.6358 30.299 17.6358 30.3063 18.2299C30.3063 18.382 30.35 18.4327 30.5031 18.4327C30.9185 18.4255 31.3194 18.4327 31.7202 18.4327Z" stroke="none" fill="#02E602"/>
        <path d="M24.6546 25.9995C24.3974 25.981 23.9301 24.8259 24.0088 24.4008C24.0823 24.0034 24.3869 23.8556 24.5549 24.1698C24.7071 24.4655 24.8437 24.7982 24.9592 25.1493C25.0852 25.5374 24.9014 26.018 24.6546 25.9995Z" stroke="none" fill="#02E602"/>
        <path d="M17 24.6783C17 24.7245 16.9791 24.8446 16.9372 24.9462C16.8274 25.2141 16.7228 25.4912 16.6025 25.7498C16.477 26.0362 16.2887 26.0731 16.1371 25.8791C15.9906 25.6852 15.954 25.3434 16.0639 25.057C16.1737 24.7707 16.2887 24.4936 16.409 24.2257C16.5032 24.0133 16.6339 23.9486 16.7751 24.041C16.9163 24.1334 16.9895 24.3181 17 24.6783Z" stroke="none" fill="#02E602"/>
        <path d="M13.6423 28.0001C13.9044 27.9906 14.0862 28.4978 13.9578 28.8901C13.8509 29.2155 13.7225 29.5218 13.5781 29.8089C13.4658 30.0385 13.3054 30.0577 13.161 29.8854C13.0165 29.7132 12.9577 29.4548 13.0326 29.1677C13.1342 28.7944 13.284 28.4691 13.4391 28.1533C13.4925 28.048 13.5728 28.0193 13.6423 28.0001Z" stroke="none" fill="#02E602"/>
        <path d="M26.3394 26.0001C26.6048 25.9905 27.0762 26.5555 26.9895 26.7825C26.9082 27.0046 26.5994 27.0771 26.4206 26.9032C26.2744 26.7631 26.1498 26.6038 26.0414 26.4348C25.9168 26.2416 26.0902 26.005 26.3394 26.0001Z" stroke="none" fill="#02E602"/>
        <path d="M28.3439 28C28.6052 28 29.0678 28.5631 28.9916 28.7815C28.9154 28.9999 28.5997 29.0776 28.4201 28.9077C28.2786 28.7718 28.1534 28.6164 28.0445 28.4563C27.9139 28.2573 28.088 28.0049 28.3439 28Z" stroke="none" fill="#02E602"/>
        <path d="M15.354 26.9993C15.0845 26.9993 14.9121 26.7519 15.0468 26.5481C15.1492 26.388 15.2785 26.2376 15.4132 26.0969C15.5264 25.9805 15.6881 25.9708 15.8336 26.0581C15.979 26.1406 16.0437 26.2716 15.9683 26.4171C15.8713 26.6112 15.7204 26.7761 15.5587 26.9314C15.5102 26.9847 15.4294 27.0041 15.354 26.9993Z" stroke="none" fill="#02E602"/>
        <path d="M21.9981 29.5105C21.9981 29.5365 21.9981 29.5626 21.9981 29.5886C21.9903 29.849 21.7973 30 21.4961 30C21.195 30 21.0097 29.8438 21.0019 29.5834C21.0019 29.4949 20.9942 29.4011 21.0097 29.3126C21.0405 29.1251 21.249 28.9949 21.5039 29.0002C21.7587 29.0002 21.9595 29.1303 21.9903 29.323C22.0058 29.3803 21.9981 29.4428 21.9981 29.5105Z" stroke="none" fill="#02E602"/>
        <path d="M21.9931 24.5026C22.0009 24.8377 21.8457 25 21.5043 25C21.1707 25 21 24.8377 21 24.5079C21 24.445 21 24.377 21.0078 24.3141C21.0388 24.1204 21.2405 24 21.5121 24C21.7681 24.0052 21.9543 24.1204 21.9931 24.3089C22.0086 24.3717 21.9931 24.4398 21.9931 24.5026Z" stroke="none" fill="#02E602"/>
        <path d="M18.9997 29.3954C18.9644 29.4996 18.9361 29.6507 18.8653 29.7914C18.7946 29.9476 18.554 30.031 18.3489 29.9893C18.1154 29.9424 17.981 29.8226 18.0022 29.6455C18.0163 29.5048 18.0659 29.3642 18.1295 29.2287C18.2003 29.062 18.4125 28.9786 18.6248 29.0047C18.8653 29.036 19.0068 29.1714 18.9997 29.3954Z" stroke="none" fill="#02E602"/>
        <path d="M21.9931 26.5001C22.0009 26.8474 21.8534 26.9947 21.5043 27C21.1552 27 21 26.8474 21 26.5053C21 26.4422 21 26.3738 21.0078 26.3106C21.0388 26.1159 21.2405 25.9949 21.5121 26.0002C21.7681 26.0054 21.9543 26.1212 21.9931 26.3054C22.0086 26.3685 21.9931 26.4317 21.9931 26.5001Z" stroke="none" fill="#02E602"/>
        <path d="M23 29.3818C23.0071 29.1528 23.1417 29.0435 23.3755 29.0071C23.6022 28.9759 23.7864 29.0487 23.8644 29.2049C23.9352 29.3506 23.9848 29.5015 23.999 29.6577C24.0132 29.8346 23.8785 29.9543 23.6447 29.9907C23.418 30.0272 23.2338 29.9543 23.1488 29.8034C23.0638 29.6577 23.0354 29.4963 23 29.3818Z" stroke="none" fill="#02E602"/>
        <path d="M18.0009 26.6034C18.0362 26.4937 18.0644 26.3526 18.1208 26.222C18.1983 26.0495 18.4309 25.9659 18.6706 26.013C18.882 26.0548 19.03 26.2167 18.9948 26.3892C18.9666 26.5146 18.9314 26.6452 18.875 26.7654C18.8045 26.9378 18.593 27.0214 18.3604 26.9953C18.1349 26.9587 17.9868 26.8124 18.0009 26.6034Z" stroke="none" fill="#02E602"/>
        <path d="M24 26.6157C23.9929 26.8301 23.8797 26.9451 23.6604 26.9869C23.4269 27.0288 23.2288 26.9712 23.1439 26.7987C23.0732 26.6523 23.0166 26.5007 23.0024 26.349C22.9812 26.1817 23.1015 26.0562 23.3279 26.0144C23.5543 25.9725 23.7594 26.0196 23.8514 26.1869C23.9293 26.3333 23.9646 26.4954 24 26.6157Z" stroke="none" fill="#02E602"/>
        <path d="M22.0003 24.3628C21.9932 24.1804 22.1345 24.0449 22.3536 24.0085C22.5657 23.972 22.7918 24.0554 22.8625 24.2169C22.9261 24.3576 22.9685 24.5034 22.9968 24.6545C23.0251 24.8213 22.8625 24.9619 22.6434 24.9932C22.4243 25.0245 22.2052 24.9463 22.1275 24.79C22.078 24.691 22.0568 24.5868 22.0215 24.4878C22.0144 24.4461 22.0073 24.3992 22.0003 24.3628Z" stroke="none" fill="#02E602"/>
        <path d="M19.9997 24.4036C19.9642 24.5084 19.9357 24.6552 19.8645 24.7967C19.7933 24.954 19.5656 25.0274 19.345 24.9907C19.1315 24.954 18.9749 24.8125 19.0033 24.6447C19.0247 24.5032 19.0674 24.3616 19.1315 24.2253C19.2097 24.0524 19.3948 23.979 19.6297 24.0052C19.8645 24.0261 20.0069 24.1729 19.9997 24.4036Z" stroke="none" fill="#02E602"/>
        <path d="M21.5039 16.0002C21.7873 16.0002 22.0077 16.2285 21.9998 16.5118C21.9919 16.7794 21.7715 16.9998 21.5118 16.9998C21.2363 17.0077 21.0002 16.7794 21.0002 16.4961C20.9923 16.2206 21.2206 15.9923 21.5039 16.0002Z" stroke="none" fill="#02E602"/>
    </symbol>

    <symbol id="map" viewBox="0 0 40 40" fill="none" xmlns="http://www.w3.org/2000/svg">
        <circle cx="20" cy="20" r="19" fill-opacity="0.95" stroke-width="2"/>
        <path fill-rule="evenodd" clip-rule="evenodd" d="M13.4563 23.28C13.5232 23.1931 13.61 23.1225 13.7098 23.0739C13.8096 23.0253 13.9197 23 14.0313 23H17.625C17.8156 23 17.9984 23.0737 18.1332 23.205C18.268 23.3363 18.3438 23.5143 18.3438 23.7C18.3438 23.8857 18.268 24.0637 18.1332 24.195C17.9984 24.3263 17.8156 24.4 17.625 24.4H14.3906L11.1563 28.6H29.8438L26.6094 24.4H23.375C23.1844 24.4 23.0016 24.3263 22.8668 24.195C22.732 24.0637 22.6562 23.8857 22.6562 23.7C22.6562 23.5143 22.732 23.3363 22.8668 23.205C23.0016 23.0737 23.1844 23 23.375 23H26.9688C27.0803 23 27.1904 23.0253 27.2902 23.0739C27.39 23.1225 27.4768 23.1931 27.5437 23.28L31.8562 28.88C31.9363 28.984 31.9851 29.1077 31.9971 29.2371C32.0091 29.3666 31.9838 29.4968 31.9241 29.613C31.8644 29.7293 31.7727 29.8271 31.6591 29.8955C31.5456 29.9638 31.4147 30 31.2812 30H9.71875C9.58527 30 9.45443 29.9638 9.34088 29.8955C9.22734 29.8271 9.13558 29.7293 9.07588 29.613C9.01619 29.4968 8.99092 29.3666 9.0029 29.2371C9.01489 29.1077 9.06366 28.984 9.14375 28.88L13.4563 23.28Z" stroke="none" fill="#02E602"/>
        <path fill-rule="evenodd" clip-rule="evenodd" d="M21 8.42808C20.4091 8.42808 19.8239 8.53894 19.2779 8.75432C18.732 8.9697 18.2359 9.28539 17.818 9.68337C17.4002 10.0813 17.0687 10.5538 16.8425 11.0738C16.6164 11.5938 16.5 12.1511 16.5 12.7139C16.5 13.2767 16.6164 13.834 16.8425 14.354C17.0687 14.874 17.4002 15.3465 17.818 15.7444C18.2359 16.1424 18.732 16.4581 19.2779 16.6735C19.8239 16.8889 20.4091 16.9997 21 16.9997C22.1935 16.9997 23.3381 16.5482 24.182 15.7444C25.0259 14.9407 25.5 13.8506 25.5 12.7139C25.5 11.5772 25.0259 10.4871 24.182 9.68337C23.3381 8.87962 22.1935 8.42808 21 8.42808ZM15 12.7139C15.0001 11.6142 15.3334 10.5379 15.9598 9.6141C16.5863 8.69032 17.4793 7.95831 18.5318 7.50592C19.5842 7.05353 20.7513 6.89997 21.8931 7.06367C23.0349 7.22736 24.1029 7.70136 24.9688 8.42879C25.8348 9.15621 26.462 10.1062 26.7751 11.1647C27.0883 12.2231 27.0741 13.3452 26.7343 14.3962C26.3945 15.4472 25.7434 16.3825 24.8593 17.0899C23.9752 17.7972 22.8956 18.2466 21.75 18.3841V26.2857C21.75 26.4751 21.671 26.6568 21.5303 26.7908C21.3897 26.9247 21.1989 27 21 27C20.8011 27 20.6103 26.9247 20.4697 26.7908C20.329 26.6568 20.25 26.4751 20.25 26.2857V18.3855C18.7994 18.2114 17.4655 17.5389 16.4988 16.4943C15.5321 15.4497 14.9991 14.1049 15 12.7125V12.7139Z" stroke="none" fill="#02E602"/>
    </symbol>

    <symbol id="drones" viewBox="0 0 40 40" fill="none" xmlns="http://www.w3.org/2000/svg">
        <circle cx="20" cy="20" r="19" fill-opacity="0.95" stroke-width="2"/>
        <path d="M8 12.7557C8 15.0967 9.58164 17.0569 11.8038 17.5387C13.075 17.8155 14.271 17.6136 15.3886 16.9429C15.4213 16.9234 15.4474 16.8973 15.4801 16.9494C15.9213 17.6039 16.32 18.2811 16.5945 19.0235C16.699 19.3068 16.7807 19.5965 16.8036 19.8994C16.8265 20.1891 16.7578 20.4659 16.6729 20.7394C16.4539 21.446 16.0977 22.0874 15.7056 22.706C15.637 22.8167 15.5618 22.9242 15.4932 23.0316C15.467 23.0772 15.4442 23.0837 15.3952 23.0544C14.8462 22.7158 14.2481 22.4944 13.6109 22.4C12.2842 22.2079 11.0652 22.4911 9.98359 23.2791C8.90846 24.0638 8.26469 25.1285 8.05882 26.4407C7.67975 28.8697 9.21237 31.2759 11.7221 31.8619C14.3364 32.4741 16.8984 30.9242 17.5585 28.3324C17.8951 27.0072 17.6728 25.7569 16.9572 24.5945C16.918 24.5327 16.9212 24.5034 16.9833 24.4643C17.614 24.0508 18.2643 23.6698 18.9767 23.4028C19.2806 23.2889 19.5943 23.1944 19.9211 23.1782C20.2446 23.1586 20.5486 23.2433 20.8525 23.3442C21.6466 23.6079 22.3622 24.028 23.055 24.4871C23.104 24.5196 23.0811 24.5392 23.0615 24.5717C22.7021 25.135 22.4668 25.7439 22.3655 26.4049C22.1727 27.6421 22.4145 28.7948 23.1138 29.8367C23.9079 31.0154 25.019 31.7317 26.4274 31.9433C28.9829 32.3308 31.3096 30.6898 31.8717 28.2868C32.4795 25.6755 30.8717 23.0837 28.2444 22.4749C26.9666 22.1786 25.7542 22.3772 24.6236 23.0479C24.5615 23.087 24.5321 23.0837 24.4896 23.0186C24.0648 22.3772 23.6726 21.7195 23.4047 20.9966C23.2968 20.7068 23.2119 20.4138 23.189 20.1045C23.1661 19.8147 23.2347 19.5379 23.3197 19.2644C23.5386 18.5579 23.8948 17.9164 24.287 17.2978C24.3523 17.1936 24.4242 17.0959 24.4863 16.9917C24.5157 16.9462 24.5353 16.9331 24.5876 16.9657C25.1628 17.3238 25.7902 17.5518 26.4634 17.6364C27.8457 17.809 29.1005 17.4801 30.1887 16.6108C31.1593 15.8326 31.7508 14.8167 31.937 13.5892C32.3292 11.0397 30.6626 8.62053 28.094 8.1191C25.5386 7.62093 23.0517 9.19033 22.4341 11.7105C22.1106 13.0259 22.3295 14.2665 23.0354 15.4191C23.0746 15.4809 23.0648 15.5037 23.006 15.5428C22.3753 15.9563 21.7283 16.334 21.0191 16.5978C20.7152 16.7117 20.408 16.8029 20.0845 16.8224C19.7479 16.842 19.4277 16.754 19.114 16.6466C18.395 16.4024 17.7382 16.028 17.1042 15.6177C17.0389 15.5754 16.9408 15.5396 16.9212 15.4809C16.9016 15.4223 16.9866 15.3507 17.0258 15.2856C17.5552 14.3772 17.7774 13.3971 17.6761 12.3519C17.48 10.3723 16.0847 8.72472 14.1664 8.18422C11.4835 7.43209 8.7418 9.05358 8.11437 11.7626C8.03921 12.1207 8 12.4789 8 12.7557ZM10.7777 29.2864C10.7809 29.2832 10.7842 29.2767 10.7875 29.2734C10.7777 29.2604 10.7679 29.2474 10.7581 29.2343C10.2908 28.7329 10.0293 28.1403 9.97378 27.4598C9.92803 26.8998 10.0489 26.369 10.3234 25.8774C10.6045 25.3727 11.0064 24.9852 11.5227 24.7248C11.5685 24.702 11.5914 24.702 11.6044 24.7606C11.7123 25.2294 11.8659 25.6788 12.0521 26.1216C12.1012 26.2388 12.1012 26.2388 11.9999 26.3137C11.6175 26.597 11.4639 26.9714 11.5718 27.437C11.6469 27.7626 11.8659 27.9971 12.124 28.1957C12.3724 28.3878 12.6567 28.4496 12.9639 28.4073C13.0325 28.3975 13.0358 28.4203 13.039 28.4724C13.0619 28.7524 13.075 29.039 13.1305 29.3157C13.2416 29.8497 13.4573 30.3479 13.6763 30.8428C13.7024 30.9047 13.7416 30.9633 13.7939 31.0121C13.8298 31.0447 13.8756 31.061 13.9148 31.0349C14.0259 30.9665 14.1403 30.9014 14.1926 30.7712C14.2057 30.7386 14.2253 30.7191 14.2579 30.7061C14.6991 30.5205 15.0912 30.2665 15.4344 29.9344C16.1173 29.2669 16.4997 28.4529 16.5683 27.5054C16.6271 26.7012 16.4311 25.9523 15.9964 25.2685C15.9703 25.2262 15.9736 25.2034 16.0128 25.1741C16.1696 25.0601 16.3232 24.9429 16.4768 24.8224C16.5226 24.7866 16.5389 24.7964 16.5683 24.842C17.2121 25.8969 17.418 27.0268 17.1173 28.225C16.5193 30.6149 14.1403 32.0247 11.7417 31.4289C9.39864 30.8461 7.95098 28.391 8.58495 26.0695C9.07839 24.2624 10.5718 23.0056 12.4574 22.8233C13.4116 22.7321 14.3004 22.9437 15.1272 23.4289C15.1795 23.4614 15.1795 23.481 15.1468 23.5265C14.7775 24.0215 14.3756 24.4903 13.9573 24.9462C13.5946 25.3401 13.1632 25.6364 12.6959 25.8904C12.6828 25.8969 12.673 25.9067 12.6567 25.8969C12.6338 25.6462 12.6207 25.3955 12.5783 25.1448C12.4802 24.5717 12.2449 24.0475 12.0129 23.52C11.9868 23.4582 11.9508 23.4028 11.9018 23.3572C11.8659 23.3247 11.8234 23.3019 11.7809 23.3279C11.6339 23.4093 11.4999 23.507 11.4639 23.6893C11.4247 23.9042 11.4737 24.1126 11.5097 24.3243C11.5162 24.3731 11.5097 24.3926 11.4672 24.4122C11.2809 24.5066 11.1077 24.6238 10.9443 24.7541C10.0097 25.5029 9.60451 26.7663 9.9313 27.9157C10.0882 28.4464 10.3659 28.9055 10.7777 29.2864ZM10.2058 11.5379C10.2319 11.4956 10.2581 11.4533 10.2842 11.4109C10.6143 10.8639 11.0718 10.4634 11.6633 10.216C12.2417 9.97178 12.8397 9.92619 13.4508 10.0727C13.9475 10.1932 14.3788 10.4309 14.7481 10.7858C14.7775 10.8151 14.8037 10.8346 14.7481 10.8672C14.307 11.1407 13.9017 11.4565 13.5194 11.8082C13.4867 11.8375 13.4671 11.8407 13.4312 11.8114C13.1534 11.5868 12.8332 11.5379 12.5031 11.6356C12.0554 11.7723 11.7515 12.0817 11.5946 12.518C11.4966 12.7947 11.5195 13.078 11.6731 13.3352C11.7221 13.4199 11.6959 13.4394 11.624 13.4622C10.8724 13.7292 10.2744 14.2241 9.70255 14.7516C9.63719 14.8102 9.57511 14.8753 9.53262 14.9567C9.50648 15.0056 9.49014 15.0609 9.53916 15.1C9.64046 15.1879 9.74503 15.2726 9.88882 15.2758C9.91823 15.2758 9.9411 15.2856 9.96071 15.3084C10.1274 15.4972 10.3136 15.6698 10.5195 15.8196C11.1796 16.308 11.9214 16.5554 12.7384 16.5685C13.4508 16.5782 14.1109 16.3959 14.722 16.0312C14.7677 16.0052 14.7873 16.0117 14.8135 16.0507C14.9213 16.194 15.0292 16.3405 15.1435 16.4805C15.186 16.5326 15.1795 16.5554 15.1207 16.588C14.1305 17.1676 13.0717 17.3532 11.9508 17.1187C9.48687 16.601 7.97386 14.1883 8.58495 11.7593C9.16335 9.45407 11.5129 7.99212 13.8952 8.58146C16.2775 9.1708 17.6826 11.4793 17.1336 13.8562C17.0258 14.3283 16.833 14.7711 16.5748 15.1781C16.5585 15.2042 16.552 15.2433 16.503 15.2042C16.3396 15.0772 16.1729 14.9502 16.0062 14.8265C15.9703 14.8004 15.9768 14.7776 15.9964 14.7451C16.1468 14.5009 16.2579 14.2371 16.3428 13.9669C16.3918 13.8139 16.4278 13.6543 16.4474 13.4948C16.4441 13.5339 16.4278 13.5664 16.418 13.6055C16.3167 13.9897 16.1729 14.3576 15.9572 14.693C15.9245 14.7418 15.9082 14.7516 15.8592 14.7093C15.6402 14.5269 15.4246 14.3446 15.2154 14.1525C14.918 13.879 14.6239 13.599 14.4017 13.2538C14.2122 12.9608 14.0488 12.6515 13.8658 12.3552C13.8364 12.3096 13.8625 12.2998 13.8952 12.2835C14.1142 12.1859 14.3364 12.0882 14.5553 11.984C15.1501 11.7007 15.6206 11.2546 16.0945 10.8151C16.1337 10.776 16.1664 10.7304 16.186 10.6783C16.2023 10.6393 16.2056 10.6002 16.1729 10.5709C16.0356 10.4504 15.8919 10.3527 15.6925 10.3951C15.4899 10.4374 15.3167 10.5416 15.137 10.636C15.0945 10.6588 15.0684 10.6653 15.0324 10.6262C14.8821 10.4732 14.7089 10.3462 14.5226 10.2388C13.7482 9.78618 12.9214 9.66571 12.0587 9.92293C11.2025 10.1769 10.5783 10.7174 10.1927 11.5249C10.196 11.5281 10.2025 11.5314 10.2058 11.5379ZM24.1399 29.2181C23.6269 28.4236 23.4406 27.5575 23.5975 26.623C23.6726 26.1704 23.8393 25.7504 24.0778 25.3597C24.1138 25.3043 24.1334 25.2848 24.1922 25.3401C24.2706 25.415 24.3556 25.4802 24.4406 25.5485C25.0876 26.0728 25.6333 26.6849 26.0059 27.437C26.0941 27.6161 26.2019 27.7854 26.3229 27.945C26.4372 28.0947 26.5647 28.2315 26.7379 28.3096C26.813 28.3422 26.8261 28.3747 26.7934 28.4496C26.483 29.1725 26.4242 29.9376 26.4209 30.7126C26.4209 30.8168 26.4242 30.9242 26.4536 31.0251C26.4699 31.0838 26.496 31.1391 26.5712 31.1326C26.7771 31.1163 26.9568 31.0479 27.0516 30.8428C27.1039 30.7321 27.1398 30.6181 27.1725 30.4977C27.1921 30.426 27.1921 30.3349 27.2346 30.286C27.2836 30.2307 27.3816 30.26 27.4568 30.2502C28.1136 30.159 28.7018 29.9083 29.1757 29.4427C30.0809 28.5603 30.3456 27.5021 29.9861 26.2942C29.9469 26.1639 29.8946 26.0337 29.8195 25.9099C29.8162 25.923 29.8129 25.9262 29.8162 25.9262C29.8293 25.9555 29.8423 25.9881 29.8554 26.0174C30.1234 26.6946 30.143 27.3817 29.8946 28.0622C29.607 28.8534 29.0678 29.4134 28.2868 29.7423C27.9927 29.866 27.6823 29.9311 27.3653 29.9507C27.3294 29.9539 27.2999 29.9539 27.313 29.9018C27.4078 29.4199 27.447 28.9315 27.4535 28.4399C27.4535 28.4041 27.4633 28.3845 27.4993 28.3748C27.8522 28.2706 28.1038 28.0361 28.2934 27.7366C28.5809 27.2872 28.4927 26.7337 28.0908 26.3821C27.9241 26.2355 27.7313 26.1216 27.5352 26.0141C27.4797 25.9848 27.4764 25.9588 27.496 25.9034C27.5842 25.6495 27.6823 25.3955 27.7444 25.1285C27.8653 24.5913 27.8653 24.0443 27.8653 23.5005C27.8653 23.4289 27.8587 23.3572 27.8293 23.2889C27.8097 23.2433 27.7803 23.2042 27.7248 23.2107C27.5973 23.227 27.4699 23.2433 27.3686 23.3344C27.3326 23.367 27.2967 23.3768 27.2509 23.3768C26.9732 23.3703 26.7019 23.3996 26.4307 23.4549C26.0091 23.5428 25.6137 23.6991 25.2477 23.927C25.2052 23.9531 25.1856 23.9531 25.1562 23.9108C25.0615 23.7805 24.9634 23.6503 24.8621 23.5265C24.8131 23.4679 24.8229 23.4451 24.8883 23.4061C25.9438 22.7939 27.0647 22.6344 28.2476 22.9274C30.5417 23.4907 31.9926 25.8644 31.4436 28.1533C30.8978 30.4098 28.7901 31.8424 26.4928 31.5038C25.3817 31.341 24.4634 30.82 23.7511 29.9539C22.957 28.9901 22.6334 27.8766 22.7772 26.636C22.8524 25.9816 23.0746 25.3792 23.4243 24.8224C23.4504 24.7801 23.4667 24.7769 23.5027 24.8062C23.6465 24.9201 23.7935 25.0308 23.9406 25.1383C23.9798 25.1676 23.9733 25.1871 23.9537 25.2262C23.4929 26.0174 23.3426 26.864 23.4994 27.7626C23.5877 28.2738 23.7837 28.7427 24.0811 29.1692C24.0974 29.1888 24.0974 29.2311 24.1399 29.2181ZM24.2608 10.6425C24.4536 10.4048 24.6693 10.1899 24.9177 10.0076C25.7477 9.40523 26.6725 9.16428 27.6823 9.34662C28.9045 9.56803 29.7868 10.2583 30.3194 11.3816C30.3685 11.4858 30.4011 11.5965 30.4436 11.704C30.3064 11.7137 30.1789 11.7235 30.0515 11.7365C29.4469 11.8017 28.8587 11.9384 28.2836 12.1338C28.228 12.1533 28.1986 12.137 28.1659 12.098C28.0548 11.9645 27.9274 11.8472 27.7803 11.7561C27.3686 11.4988 26.849 11.5412 26.5059 11.857C26.3915 11.9612 26.3032 12.0849 26.2183 12.2119C26.0778 12.4268 25.9569 12.6547 25.8294 12.8794C25.8 12.9315 25.7673 12.951 25.7052 12.951C25.398 12.9543 25.0909 12.9478 24.7902 13.0096C24.336 13.1008 23.8948 13.2408 23.4569 13.3971C23.3851 13.4231 23.3132 13.4557 23.2511 13.5045C23.2086 13.5404 23.1759 13.5827 23.2021 13.6413C23.2968 13.8529 23.4439 13.9897 23.689 13.9962C23.8524 14.0027 24.0157 13.9897 24.1791 13.9734C24.2249 13.9702 24.2478 13.9799 24.2641 14.0255C24.3099 14.146 24.3719 14.2567 24.4373 14.3641C24.4667 14.413 24.4569 14.4358 24.4177 14.4716C24.1269 14.7158 23.8262 14.9502 23.5223 15.1814C23.4569 15.2302 23.4308 15.2302 23.3883 15.1586C22.8034 14.1785 22.604 13.1334 22.8197 12.0133C23.2837 9.63315 25.6268 8.08003 28.0156 8.55867C30.3227 9.01776 31.8521 11.196 31.4991 13.5111C31.3325 14.6083 30.8129 15.52 29.9567 16.2233C29.0058 17.008 27.9012 17.3271 26.6725 17.2099C26.0189 17.148 25.4111 16.9364 24.8491 16.5978C24.8098 16.575 24.7935 16.5587 24.8294 16.5131C25.0745 16.1842 25.3327 15.8619 25.6007 15.5526C25.6333 15.5135 25.6562 15.5103 25.702 15.533C26.3098 15.8359 26.9503 15.9303 27.6202 15.8098C28.1594 15.7121 28.6365 15.4809 29.0515 15.1228C29.0744 15.1032 29.1103 15.087 29.1201 15.0284C28.9665 15.1553 28.8195 15.2595 28.6626 15.3474C28.0679 15.6796 27.4307 15.7935 26.7575 15.6893C26.4372 15.6405 26.1333 15.533 25.849 15.3768C25.8229 15.3605 25.7739 15.354 25.8229 15.3051C26.0451 15.0739 26.2575 14.8297 26.5124 14.6279C26.849 14.3674 27.2248 14.1688 27.594 13.9571C27.7672 13.8595 27.9372 13.752 28.0908 13.6218C28.3326 13.4134 28.4633 13.1562 28.4568 12.8371C28.4568 12.7687 28.4764 12.7557 28.5385 12.7557C28.8097 12.7492 29.0842 12.7589 29.3554 12.7198C29.8685 12.645 30.3554 12.4756 30.8456 12.3096C30.9175 12.2835 30.9893 12.251 31.0482 12.1989C31.0841 12.1663 31.1168 12.1273 31.0939 12.0752C31.0351 11.9547 30.973 11.8342 30.8456 11.7723C30.8129 11.7561 30.7965 11.7333 30.7835 11.7007C30.5286 10.9518 30.0842 10.3364 29.4437 9.87409C28.6365 9.28801 27.728 9.05032 26.7346 9.17731C25.9144 9.2815 25.2052 9.62989 24.6138 10.2062C24.4798 10.3364 24.3458 10.4732 24.2478 10.636C24.251 10.636 24.2576 10.6393 24.2608 10.6425ZM15.9082 25.2587C16.1566 25.682 16.3167 26.1281 16.3886 26.6067C16.467 27.144 16.4278 27.6714 16.2579 28.1826C15.9213 29.1822 15.271 29.9051 14.3004 30.3381C14.2514 30.3609 14.2351 30.3577 14.2285 30.2991C14.1893 29.9734 14.1207 29.6544 14.0357 29.3385C13.9213 28.9218 13.7776 28.5148 13.6044 28.1208C13.5913 28.0915 13.5684 28.0687 13.6011 28.0329C13.7939 27.8115 13.941 27.5575 14.0717 27.3003C14.4932 26.4537 15.1795 25.8448 15.9082 25.2587ZM20.0028 22.4749C18.6075 22.4683 17.5715 21.3678 17.516 20.1142C17.4539 18.7109 18.5748 17.5322 19.993 17.5322C21.3851 17.5322 22.421 18.6328 22.4799 19.8831C22.5452 21.2929 21.4211 22.4683 20.0028 22.4749ZM10.2777 15.1846C10.2842 15.1781 10.2842 15.1749 10.2875 15.1749C10.977 14.8297 11.6012 14.3902 12.1665 13.8692C12.1992 13.8399 12.2221 13.8464 12.2515 13.866C12.3822 13.9441 12.5162 14.019 12.6469 14.0939C12.9671 14.2762 13.2939 14.4553 13.5717 14.6995C13.9704 15.0512 14.3168 15.4549 14.6566 15.8619C14.7024 15.9173 14.6468 15.9205 14.6207 15.9335C13.856 16.3405 13.0488 16.4643 12.1992 16.2917C11.4443 16.1354 10.8038 15.7642 10.2777 15.1846ZM26.8522 25.6137C26.7117 25.529 26.5875 25.4443 26.4699 25.3467C26.0614 24.9983 25.7183 24.5913 25.3719 24.1875C25.336 24.1452 25.3752 24.1387 25.398 24.1257C25.6889 23.9661 25.9961 23.8522 26.3196 23.7805C26.5941 23.7187 26.8719 23.6926 27.1594 23.6991C26.9764 24.3243 26.8817 24.9559 26.8522 25.6137ZM13.9442 26.7272C13.9377 26.6588 13.9802 26.6132 14.0063 26.5644C14.3788 25.9034 14.8886 25.3597 15.4572 24.868C15.5618 24.7801 15.5618 24.7834 15.65 24.8908C15.6893 24.9397 15.6893 24.9625 15.637 25.0048C15.0128 25.5127 14.4311 26.0695 13.9442 26.7272ZM13.258 13.9929C13.2612 13.9864 13.2645 13.9799 13.2678 13.9734C13.3168 13.9995 13.3691 14.0255 13.4181 14.0516C14.0619 14.4162 14.5978 14.9079 15.0814 15.4582C15.1729 15.5623 15.1697 15.5623 15.0618 15.6503C15.0161 15.6893 14.9932 15.6958 14.9475 15.6437C14.5815 15.1977 14.186 14.7776 13.7514 14.3967C13.5946 14.2534 13.4279 14.1232 13.258 13.9929ZM26.7509 26.0207C26.7183 26.0369 26.6954 26.0174 26.6725 26.0044C26.581 25.9523 26.4862 25.9034 26.398 25.8481C25.8457 25.5029 25.3752 25.0699 24.9438 24.5848C24.8425 24.4708 24.8262 24.5066 24.9667 24.3959C25.0124 24.3601 25.0353 24.3601 25.0778 24.4089C25.5778 25.0048 26.1202 25.5583 26.7509 26.0207ZM23.6596 15.5396C23.6792 15.5233 23.6955 15.5102 23.7151 15.4972C24.0157 15.2758 24.3164 15.0512 24.6007 14.8037C24.6922 14.7223 24.6889 14.7288 24.7706 14.8102C24.8294 14.8688 24.8098 14.8981 24.7608 14.9437C24.4798 15.2009 24.1824 15.4354 23.8687 15.6535C23.8458 15.6698 23.8197 15.7186 23.787 15.6861C23.738 15.6437 23.702 15.5916 23.6596 15.5396ZM15.9082 16.5847C16.1337 16.8582 16.7513 18.1379 16.8069 18.4602C16.7807 18.4179 16.7644 18.3951 16.7513 18.3723C16.467 17.8578 16.1696 17.3532 15.8494 16.8615C15.7448 16.6987 15.7448 16.6987 15.9082 16.5847ZM23.2021 21.5664C23.2086 21.5762 23.2151 21.5795 23.2151 21.5827C23.5354 22.1525 23.8589 22.7191 24.2249 23.2628C24.2445 23.2921 24.238 23.3051 24.2151 23.3214C24.1922 23.3377 24.1661 23.3507 24.1497 23.3735C24.1007 23.4289 24.0713 23.4126 24.0354 23.354C23.7053 22.807 23.421 22.2404 23.2086 21.6381C23.2021 21.6185 23.189 21.599 23.2021 21.5664ZM18.4375 23.1879C18.4212 23.1977 18.4081 23.2075 18.395 23.214C17.8558 23.507 17.3265 23.8163 16.8134 24.1484C16.699 24.2233 16.7023 24.2233 16.6141 24.1224C16.5748 24.0768 16.5716 24.0605 16.6271 24.028C17.1827 23.6926 17.7611 23.4093 18.3722 23.1944C18.3918 23.1847 18.4114 23.1749 18.4375 23.1879ZM23.4112 15.9498C23.0289 16.2201 21.7675 16.8159 21.5649 16.8127C21.6269 16.7768 21.676 16.7475 21.725 16.7215C22.2054 16.461 22.6727 16.181 23.1334 15.8879C23.2968 15.7838 23.2968 15.7838 23.4079 15.94C23.4112 15.9466 23.4112 15.9498 23.4112 15.9498ZM25.8817 13.625C25.8654 13.6543 25.8555 13.6673 25.849 13.6804C25.6268 14.0223 25.3654 14.3348 25.0843 14.6311C25.0288 14.6897 25.0059 14.6832 24.9569 14.6246C24.9046 14.5595 24.9046 14.5269 24.97 14.4683C25.2347 14.2339 25.4797 13.9734 25.7118 13.7064C25.7542 13.6543 25.8033 13.6348 25.8817 13.625ZM16.1762 24.3178C16.199 24.3145 16.2056 24.3308 16.2154 24.3438C16.2415 24.3731 16.2644 24.4057 16.2905 24.4317C16.3232 24.4675 16.32 24.4871 16.2807 24.5131C16.1468 24.6108 16.0128 24.7085 15.8821 24.8094C15.7513 24.9104 15.7513 24.9104 15.6468 24.7834C15.6174 24.7476 15.6239 24.7345 15.6566 24.7085C15.8134 24.5782 15.9834 24.461 16.1468 24.3406C16.1533 24.334 16.1664 24.3243 16.1762 24.3178ZM15.0782 15.7903C15.1207 15.7545 15.1631 15.7219 15.1991 15.6828C15.2318 15.6503 15.2546 15.6503 15.284 15.6893C15.3821 15.8196 15.4834 15.9498 15.5782 16.0801C15.6697 16.2038 15.6697 16.2038 15.5455 16.2982C15.5063 16.3275 15.4867 16.3308 15.454 16.2884C15.3429 16.1354 15.2252 15.9824 15.1108 15.8326C15.101 15.8196 15.0912 15.8065 15.0782 15.7903ZM24.885 24.1712C24.8491 24.2005 24.8066 24.2266 24.7739 24.2592C24.7249 24.3145 24.6955 24.2917 24.6628 24.2461C24.5844 24.1387 24.5027 24.0345 24.4242 23.927C24.3197 23.787 24.3229 23.7903 24.4634 23.6893C24.4994 23.6666 24.5125 23.6731 24.5353 23.7024C24.6497 23.8619 24.7674 24.0182 24.885 24.1712ZM24.568 13.9311C24.7477 13.8985 24.9275 13.8627 25.1072 13.8301C24.9928 13.9571 24.8719 14.0711 24.751 14.1851C24.7379 14.1981 24.7216 14.2078 24.7053 14.2241C24.6497 14.1264 24.6007 14.0353 24.568 13.9311Z" stroke="none" fill="#02E602"/>
        <path d="M23.9902 11C23.9705 11.0197 23.9509 11.0426 23.9312 11.0622H23.9279C23.9836 11.0884 23.9738 11.0229 24 11.0098C24 11.0066 23.9934 11.0033 23.9902 11Z" stroke="none" fill="#02E602"/>
        <path d="M24 11.0167C23.9967 11.0004 23.987 10.9939 23.9739 11.0069C23.9707 11.0102 23.9674 11.02 23.9707 11.02C23.9804 11.0363 23.987 11.0069 24 11.0167Z" stroke="none" fill="#02E602"/>
        <path d="M23.992 11.0459C23.9821 11.0328 24.0214 11.0098 23.9821 11C23.9854 11 23.9821 11 23.9821 11C23.9887 11.0164 23.9559 11.0393 23.992 11.0459C23.992 11.0459 23.9952 11.0459 23.992 11.0459Z" stroke="none" fill="#02E602"/>
        <path d="M28.9902 15C28.9837 15.0065 28.9707 15.013 28.9804 15.0228C28.9935 15.0359 28.9967 15.0196 29 15.0098C28.9967 15.0098 28.9935 15.0065 28.9902 15Z" stroke="none" fill="#02E602"/>
        <path d="M28.9902 15C28.9837 15.0065 28.9804 15.0098 28.9739 15.0163C28.9772 15.0196 28.9804 15.0228 28.9837 15.0293C28.9935 15.0293 29 15.0228 29 15.013C28.9967 15.0065 28.9935 15.0033 28.9902 15Z" stroke="none" fill="#02E602"/>
        <path d="M29 15.007C28.987 14.9907 28.9804 15.007 28.9739 15.0135C28.9772 15.0168 28.9804 15.02 28.9837 15.0233C28.9935 15.0233 28.9967 15.0168 29 15.007C28.9967 15.0038 29 15.007 29 15.007Z" stroke="none" fill="#02E602"/>
        <path d="M28.9804 15.0174C28.9935 15.0174 28.9967 15.0142 28.9967 15.0011H29C28.9837 14.9979 28.9772 15.0011 28.9804 15.0174Z" stroke="none" fill="#02E602"/>
        <path d="M29 15.0014C28.9935 15.0014 28.987 15.0047 28.9804 15.0047C28.9837 15.008 28.9837 15.0145 28.987 15.0178H28.9837C28.9935 15.0178 29 15.0112 29 15.0014C28.9967 14.9982 29 15.0014 29 15.0014Z" stroke="none" fill="#02E602"/>
        <path d="M28.987 15.0163C28.9902 15.013 28.9935 15.0065 29 15.0033C28.9967 15.0033 28.9935 15 28.9935 15C28.9804 15.0065 28.9804 15.013 28.987 15.0163C28.987 15.0196 28.987 15.0163 28.987 15.0163Z" stroke="none" fill="#02E602"/>
        <path d="M28.9981 15L28.994 15.0042C28.9981 15.0042 28.9981 15 28.9981 15C28.9981 15 29.0023 15 28.9981 15Z" stroke="none" fill="#02E602"/>
        <path d="M29 15.0017C28.9962 14.9979 28.9962 15.0017 29 15.0017C29 15.0017 28.9962 15.0017 29 15.0017Z" stroke="none" fill="#02E602"/>
        <path d="M23.989 29C23.9653 29.0068 23.9822 29.0203 23.9856 29.0305C23.9856 29.0338 23.9991 29.0338 23.9991 29.0338C24.0025 29.0203 23.9957 29.0102 23.989 29C23.9856 29.0034 23.989 29 23.989 29Z" stroke="none" fill="#02E602"/>
        <path d="M9.98693 12C9.96078 12.0586 9.93791 12.1205 9.91177 12.1791C9.95098 12.127 9.98039 12.0716 10 12.0098C9.99673 12.0065 9.9902 12.0033 9.98693 12Z" stroke="none" fill="#02E602"/>
        <path d="M9.9869 12C9.98035 12.0131 9.97707 12.0229 9.97052 12.036C9.9738 12.0393 9.98035 12.0426 9.98362 12.0459C9.99672 12.0393 10 12.0262 10 12.0131C9.99672 12.0066 9.99017 12.0033 9.9869 12Z" stroke="none" fill="#02E602"/>
        <path d="M9.99674 12C9.99674 12.0033 9.99348 12.0098 9.99348 12.013C9.99348 12.0163 9.99674 12.0163 9.99674 12.0196C9.99674 12.0163 10 12.0098 10 12.0065C10 12.0033 9.99674 12 9.99674 12Z" stroke="none" fill="#02E602"/>
        <path d="M9.98362 12C9.98034 12.0098 9.97379 12.0197 9.97051 12.0328C9.97379 12.036 9.98034 12.0426 9.98362 12.0459C9.99672 12.0393 10 12.0262 10 12.0131C9.99672 12.0066 9.99017 12.0033 9.98362 12Z" stroke="none" fill="#02E602"/>
        <path d="M10.941 29.0098C10.9574 29.0262 10.9705 29.0491 11 29.0491C10.9902 29.0229 10.9738 29.0098 10.9509 29C10.9509 29.0033 10.9443 29.0066 10.941 29.0098Z" stroke="none" fill="#02E602"/>
        <path d="M10.9739 29.013C10.9804 29.0196 10.9837 29.0228 10.9902 29.0293C10.9935 29.0261 10.9967 29.0196 11 29.0163C10.9935 29.0098 10.9902 29.0065 10.9837 29C10.9837 29.0033 10.9804 29.0065 10.9739 29.013Z" stroke="none" fill="#02E602"/>
        <path d="M10.9739 29.013C10.9804 29.0163 10.9837 29.0228 10.9902 29.0261C10.9935 29.0228 10.9967 29.0196 11 29.0163C11 29.0065 10.9935 29 10.9837 29C10.9772 29.0065 10.9739 29.0098 10.9739 29.013Z" stroke="none" fill="#02E602"/>
        <path d="M19.9951 22C21.1484 21.9933 21.9933 21.0579 22 20.0152C22.0067 18.9657 21.1685 18.0136 20.0085 18.0001C18.9189 17.9867 18.0137 18.8819 18.0002 19.9816C17.9835 21.0378 18.8284 21.9899 19.9951 22ZM19.9984 21.4401C19.1971 21.4401 18.5501 20.7964 18.5534 19.9984C18.5534 19.2105 19.2005 18.5701 19.9884 18.5601C20.7394 18.55 21.4401 19.1535 21.4468 19.9984C21.4468 20.7964 20.7964 21.4401 19.9984 21.4401Z" stroke="none" fill="#02E602"/>
        <path d="M19 19.9986C19 20.5512 19.4473 20.9972 19.9986 21C20.5527 21 21 20.554 21 20.0014C21 19.4488 20.5556 19.0028 20.0014 19C19.4501 18.9972 19 19.446 19 19.9986ZM19.9367 19.3843C19.9367 19.3591 19.9367 19.331 19.9367 19.3058C19.9451 19.1627 19.9761 19.1375 20.1195 19.1543C20.1421 19.1571 20.1617 19.1627 20.1814 19.1655C20.5527 19.2384 20.8481 19.5863 20.8565 19.9593C20.8565 20.007 20.8481 20.0295 20.7975 20.0435C20.3643 20.1641 19.9311 19.8359 19.9367 19.3843ZM19.2138 20.3324C19.346 20.2903 19.4585 20.3184 19.557 20.3997C19.6639 20.4895 19.692 20.6073 19.6751 20.7419C19.6695 20.7784 19.6554 20.7784 19.6273 20.7644C19.4388 20.6718 19.3038 20.5288 19.2138 20.3324ZM19.9339 19.979C19.9339 19.9565 19.9592 19.9313 19.9986 19.9313C20.0352 19.9313 20.0633 19.9509 20.0661 19.9958C20.0661 20.0407 20.0408 20.0631 20.0042 20.0659C19.9648 20.0659 19.9367 20.0435 19.9339 19.979Z" stroke="none" fill="#02E602"/>
    </symbol>

    <symbol id="news" viewBox="0 0 40 40" fill="none" xmlns="http://www.w3.org/2000/svg">
        <circle cx="20" cy="20" r="19" fill-opacity="0.95" stroke-width="2"/>
        <path d="M13.9375 15.5769C13.9375 15.4035 14.0066 15.2372 14.1297 15.1146C14.2528 14.992 14.4197 14.9231 14.5938 14.9231H23.7812C23.9553 14.9231 24.1222 14.992 24.2453 15.1146C24.3684 15.2372 24.4375 15.4035 24.4375 15.5769C24.4375 15.7503 24.3684 15.9166 24.2453 16.0393C24.1222 16.1619 23.9553 16.2308 23.7812 16.2308H14.5938C14.4197 16.2308 14.2528 16.1619 14.1297 16.0393C14.0066 15.9166 13.9375 15.7503 13.9375 15.5769ZM21.1562 18.8462C20.9822 18.8462 20.8153 18.915 20.6922 19.0377C20.5691 19.1603 20.5 19.3266 20.5 19.5C20.5 19.6734 20.5691 19.8397 20.6922 19.9623C20.8153 20.085 20.9822 20.1538 21.1562 20.1538H23.7812C23.9553 20.1538 24.1222 20.085 24.2453 19.9623C24.3684 19.8397 24.4375 19.6734 24.4375 19.5C24.4375 19.3266 24.3684 19.1603 24.2453 19.0377C24.1222 18.915 23.9553 18.8462 23.7812 18.8462H21.1562ZM20.5 23.4231C20.5 23.2497 20.5691 23.0834 20.6922 22.9607C20.8153 22.8381 20.9822 22.7692 21.1562 22.7692H23.7812C23.9553 22.7692 24.1222 22.8381 24.2453 22.9607C24.3684 23.0834 24.4375 23.2497 24.4375 23.4231C24.4375 23.5965 24.3684 23.7628 24.2453 23.8854C24.1222 24.008 23.9553 24.0769 23.7812 24.0769H21.1562C20.9822 24.0769 20.8153 24.008 20.6922 23.8854C20.5691 23.7628 20.5 23.5965 20.5 23.4231ZM14.5938 18.8462C14.4197 18.8462 14.2528 18.915 14.1297 19.0377C14.0066 19.1603 13.9375 19.3266 13.9375 19.5V23.4231C13.9375 23.5965 14.0066 23.7628 14.1297 23.8854C14.2528 24.008 14.4197 24.0769 14.5938 24.0769H18.5312C18.7053 24.0769 18.8722 24.008 18.9953 23.8854C19.1184 23.7628 19.1875 23.5965 19.1875 23.4231V19.5C19.1875 19.3266 19.1184 19.1603 18.9953 19.0377C18.8722 18.915 18.7053 18.8462 18.5312 18.8462H14.5938ZM15.25 22.7692V20.1538H17.875V22.7692H15.25ZM10 13.6154C10 12.9217 10.2766 12.2565 10.7688 11.766C11.2611 11.2755 11.9288 11 12.625 11H25.75C26.4462 11 27.1139 11.2755 27.6062 11.766C28.0984 12.2565 28.375 12.9217 28.375 13.6154V14.9231C29.0712 14.9231 29.7389 15.1986 30.2312 15.6891C30.7234 16.1796 31 16.8448 31 17.5385V24.7308C31 25.5978 30.6543 26.4294 30.0389 27.0425C29.4236 27.6556 28.589 28 27.7188 28H13.2812C12.411 28 11.5764 27.6556 10.9611 27.0425C10.3457 26.4294 10 25.5978 10 24.7308V13.6154ZM27.0625 13.6154C27.0625 13.2686 26.9242 12.9359 26.6781 12.6907C26.4319 12.4455 26.0981 12.3077 25.75 12.3077H12.625C12.2769 12.3077 11.9431 12.4455 11.6969 12.6907C11.4508 12.9359 11.3125 13.2686 11.3125 13.6154V24.7308C11.3125 25.251 11.5199 25.7499 11.8891 26.1178C12.2583 26.4856 12.7591 26.6923 13.2812 26.6923H27.7188C28.2409 26.6923 28.7417 26.4856 29.1109 26.1178C29.4801 25.7499 29.6875 25.251 29.6875 24.7308V17.5385C29.6875 17.1916 29.5492 16.859 29.3031 16.6138C29.0569 16.3685 28.7231 16.2308 28.375 16.2308V24.7308C28.375 24.9042 28.3059 25.0705 28.1828 25.1931C28.0597 25.3157 27.8928 25.3846 27.7188 25.3846C27.5447 25.3846 27.3778 25.3157 27.2547 25.1931C27.1316 25.0705 27.0625 24.9042 27.0625 24.7308V13.6154Z" stroke="none" fill="#02E502"/>
    </symbol>

    <symbol id="company" viewBox="0 0 40 40" fill="none" xmlns="http://www.w3.org/2000/svg">
        <circle cx="20" cy="20" r="19"  fill-opacity="0.95" stroke-width="2"/>
        <path d="M29.5716 8.34775L29.3751 19.6044L19.7248 13.8059L29.5716 8.34775Z" stroke="none" fill="#02E602"/>
        <path d="M10.9372 30.851L9.78176 19.4969L19.9073 23.795L10.9372 30.851Z" stroke="none" fill="#02E602"/>
    </symbol>

    <symbol id="contacts" viewBox="0 0 40 40" fill="none" xmlns="http://www.w3.org/2000/svg">
        <circle id="Ellipse 3" cx="20" cy="20" r="19"  fill-opacity="0.95" stroke-width="2"/>
        <path d="M25.3335 28.8334C25.2397 28.8334 25.146 28.8334 25.0522 28.8334C23.5522 28.7395 21.9585 28.1763 20.646 27.4254C17.7397 25.9235 15.2085 23.6707 13.4272 20.8546C13.0522 20.2914 12.6772 19.7282 12.396 19.0712C11.5522 17.6632 11.0835 15.9735 11.0835 14.3778C11.1772 13.4391 11.646 12.5005 12.3022 11.9373C13.4272 10.8108 13.896 10.3415 14.4585 10.1538C14.9272 10.0599 15.3022 10.0599 15.6772 10.1538C16.4272 10.2476 16.6147 10.4354 18.021 11.8434C19.3335 13.1575 19.4272 13.2514 19.6147 13.6269C19.896 14.1901 19.9897 14.8471 19.7085 15.4103C19.521 15.8797 19.3335 16.1613 18.4897 16.9122L18.021 17.3816C19.0522 19.165 20.646 20.6669 22.4272 21.7933H22.521L22.9897 21.324C23.271 21.0424 23.646 20.6669 23.9272 20.3853C24.6772 19.916 25.4272 19.916 26.1772 20.2914C26.5522 20.4792 26.646 20.573 27.9585 21.8872C29.3647 23.2013 29.3647 23.2952 29.5522 23.6707C29.9272 24.3277 29.9272 25.0787 29.5522 25.7357C29.3647 26.1112 29.271 26.2051 28.521 26.956C28.0522 27.4254 27.5835 27.8947 27.5835 27.8947C26.9272 28.5518 26.1772 28.8334 25.3335 28.8334ZM15.2085 10.9047C15.1147 10.9047 14.9272 10.9047 14.7397 10.9986C14.4585 11.0924 14.1772 11.374 13.0522 12.5005C12.396 12.9698 12.1147 13.6269 12.021 14.3778C12.021 15.8797 12.396 17.3816 13.146 18.6018C13.4272 19.2589 13.8022 19.8221 14.1772 20.3853C15.9585 23.0136 18.3022 25.1725 21.1147 26.6744C22.3335 27.4254 23.7397 27.8008 25.146 27.9886C25.8022 28.0824 26.5522 27.8008 27.021 27.4254C27.1147 27.3315 27.4897 26.956 27.9585 26.4867C28.7085 25.7358 28.8022 25.6419 28.896 25.4541C29.0835 25.0787 29.0835 24.6093 28.896 24.2339C28.8022 23.9523 28.8022 23.9523 27.396 22.6381C26.0835 21.324 26.0835 21.324 25.896 21.2301C25.521 21.0424 25.0522 21.0424 24.5835 21.324C24.3022 21.5117 24.021 21.7933 23.7397 22.0749L23.271 22.5443C22.9897 22.8259 22.4272 22.9197 22.0522 22.732C20.0835 21.6056 18.396 19.916 17.271 17.9448C17.0835 17.4754 17.1772 17.0061 17.3647 16.7245L17.8335 16.2552C18.5835 15.5042 18.6772 15.3165 18.771 15.0349C18.9585 14.7533 18.9585 14.3778 18.771 14.0023C18.6772 13.8146 18.4897 13.6269 17.3647 12.5005C15.9585 11.0924 15.8647 11.0924 15.5835 10.9986C15.4897 10.9047 15.396 10.9047 15.2085 10.9047Z" stroke="none" fill="#02E602"/>
    </symbol>

    <!-- Messenger Icons -->
    <symbol id="tg" viewBox="0 0 30 30" fill="none" xmlns="http://www.w3.org/2000/svg">
        <circle cx="15" cy="15" r="14" stroke-width="2"/>
        <path d="M20.92 9.08548L6.7471 14.3803C5.77986 14.7567 5.78545 15.2794 6.56964 15.5125L10.2084 16.6122L18.6274 11.4661C19.0255 11.2314 19.3892 11.3577 19.0903 11.6148L12.2692 17.5787H12.2676L12.2692 17.5795L12.0182 21.2131C12.3859 21.2131 12.5482 21.0497 12.7544 20.8569L14.5218 19.1919L18.1982 21.8226C18.876 22.1843 19.3628 21.9984 19.5315 21.2147L21.9448 10.196C22.1918 9.23649 21.5667 8.80203 20.92 9.08548Z" stroke="none" fill="var(--svg-messenger-color)"/>
    </symbol>

    <symbol id="wa" viewBox="0 0 30 30" fill="transparent" xmlns="http://www.w3.org/2000/svg">
        <path d="M25.6171 4.36133C24.2356 2.97323 22.5903 1.87273 20.7772 1.12397C18.9641 0.375215 17.0194 -0.00683299 15.0565 9.24945e-05C6.83136 9.24945e-05 0.128076 6.67132 0.120542 14.8613C0.120542 17.4844 0.809894 20.0363 2.11138 22.2956L0 30L7.91813 27.9338C10.1086 29.1205 12.5626 29.7425 15.0565 29.7431H15.064C23.2911 29.7431 29.9925 23.0719 30 14.8744C30.0019 12.9208 29.6154 10.986 28.8629 9.18171C28.1103 7.37739 27.0066 5.73913 25.6153 4.36133H25.6171ZM15.0565 27.2269C12.8321 27.2276 10.6486 26.6317 8.73556 25.5019L8.28352 25.2319L3.58614 26.4581L4.84053 21.8963L4.54671 21.4257C3.30325 19.4575 2.64562 17.1788 2.65005 14.8538C2.65005 8.05507 8.21949 2.50883 15.064 2.50883C16.6946 2.50592 18.3097 2.82435 19.8161 3.44575C21.3225 4.06716 22.6904 4.97925 23.841 6.12945C24.9957 7.27516 25.911 8.63711 26.5343 10.1367C27.1575 11.6364 27.4763 13.244 27.4724 14.8669C27.4648 21.69 21.8954 27.2269 15.0565 27.2269ZM21.8653 17.9757C21.4942 17.79 19.6616 16.8919 19.3169 16.7644C18.9741 16.6425 18.7236 16.5788 18.4788 16.95C18.2283 17.3194 17.5126 18.1613 17.2978 18.4032C17.0831 18.6525 16.8609 18.6807 16.4879 18.4969C16.1169 18.3094 14.9134 17.9194 13.4894 16.65C12.3782 15.6657 11.6342 14.4469 11.412 14.0775C11.1973 13.7063 11.3913 13.5076 11.5777 13.3219C11.7416 13.1569 11.9488 12.8869 12.1352 12.6732C12.3236 12.4594 12.3857 12.3019 12.5082 12.0544C12.6306 11.8032 12.5722 11.5894 12.4799 11.4038C12.3857 11.2182 11.6418 9.38631 11.3272 8.64756C11.0259 7.91819 10.7189 8.01944 10.4891 8.01007C10.2744 7.99694 10.0239 7.99694 9.77335 7.99694C9.58418 8.00162 9.39803 8.04518 9.22657 8.12488C9.05511 8.20457 8.90205 8.31869 8.77699 8.46007C8.4342 8.83132 7.47551 9.72944 7.47551 11.5613C7.47551 13.3932 8.81278 15.1538 9.00113 15.4032C9.18571 15.6525 11.6267 19.4007 15.3729 21.0132C16.2582 21.3975 16.955 21.6244 17.4994 21.7969C18.394 22.0819 19.202 22.0388 19.8462 21.9469C20.5619 21.8382 22.0517 21.0469 22.3663 20.1788C22.6752 19.3088 22.6752 18.5663 22.581 18.4107C22.4887 18.2532 22.2382 18.1613 21.8653 17.9757Z" stroke="none" fill="var(--svg-messenger-color)"/>
    </symbol>

    <symbol id="we" viewBox="0 0 30 30" fill="transparent" xmlns="http://www.w3.org/2000/svg">
        <path d="M10.2817 12.7562C10.0169 12.758 9.75449 12.7083 9.50955 12.6098C9.26461 12.5114 9.04208 12.3661 8.85488 12.1826C8.66769 11.9991 8.51957 11.781 8.41913 11.5409C8.31868 11.3007 8.26792 11.0434 8.2698 10.7839C8.2698 9.68189 9.15753 8.81009 10.2817 8.81009C11.4042 8.81009 12.2935 9.68189 12.2935 10.7839C12.2935 11.8844 11.4042 12.7562 10.2817 12.7562ZM20.7183 12.7562C20.4536 12.758 20.1912 12.7083 19.9462 12.6098C19.7013 12.5114 19.4787 12.3661 19.2915 12.1826C19.1044 11.9991 18.9562 11.781 18.8558 11.5409C18.7554 11.3007 18.7046 11.0434 18.7065 10.7839C18.7065 9.68189 19.5958 8.81009 20.7183 8.81009C21.8425 8.81009 22.7302 9.68189 22.7302 10.7839C22.7302 11.8844 21.8425 12.7562 20.7183 12.7562ZM7.3946 24.5808L8.51404 23.9116C9.78164 23.1539 11.2826 22.8623 12.7491 23.0889C13.0811 23.1395 13.3535 23.1794 13.5633 23.2055C14.1989 23.2884 14.8471 23.3299 15.5 23.3299C22.4202 23.3299 27.8687 18.6915 27.8687 13.1998C27.8687 7.70806 22.4202 3.06972 15.5 3.06972C8.5798 3.06972 3.13131 7.70806 3.13131 13.1998C3.13131 15.2964 3.91414 17.3025 5.37333 19.0031C5.44849 19.0906 5.56121 19.2134 5.70838 19.3638C6.3238 19.9921 6.79579 20.7416 7.09299 21.5625C7.3902 22.3834 7.50582 23.2568 7.43217 24.1249L7.39303 24.5808H7.3946ZM6.40823 28.7663C6.16198 28.9174 5.87771 28.9983 5.58724 29C5.29676 29.0017 5.01153 28.9241 4.76344 28.776C4.51535 28.6279 4.31418 28.415 4.18244 28.1612C4.0507 27.9074 3.99358 27.6227 4.01748 27.3389L4.31182 23.8701C4.34875 23.4362 4.29106 22.9994 4.14259 22.589C3.99413 22.1786 3.75827 21.8038 3.45071 21.4896C3.28649 21.3243 3.12776 21.1538 2.97475 20.9785C1.10535 18.7974 0 16.1083 0 13.1998C0 5.90921 6.93899 0 15.5 0C24.061 0 31 5.90921 31 13.1998C31 20.4904 24.061 26.3996 15.5 26.3996C14.7015 26.3996 13.9187 26.3489 13.1531 26.2492C12.8556 26.2097 12.5586 26.1667 12.2622 26.1202C11.5287 26.0068 10.7779 26.1525 10.1439 26.5316L6.40667 28.7663H6.40823Z" fill="var(--svg-messenger-color)" stroke="none"/>
    </symbol>
</svg>